<svg width="41" height="40" viewBox="0 0 41 40" fill="none" xmlns="http://www.w3.org/2000/svg">
<g clip-path="url(#clip0_584_84)">
<mask id="mask0_584_84" style="mask-type:luminance" maskUnits="userSpaceOnUse" x="8" y="8" width="24" height="24">
<path d="M32 8H8V32H32V8Z" fill="white"/>
</mask>
<g mask="url(#mask0_584_84)">
<path d="M19.9523 18.765C20.066 19.178 19.8686 19.5256 19.5874 19.8681C16.4885 23.6661 13.3956 27.4692 10.2968 31.2672C10.1293 31.4686 9.94383 31.6752 9.71052 31.8162C9.29175 32.063 8.69352 31.9875 8.34654 31.7004C7.95769 31.383 7.87394 30.9095 8.20895 30.4864C8.97469 29.5193 9.76436 28.5673 10.548 27.6102C12.6299 25.0564 14.7118 22.4975 16.8056 19.9487C16.9671 19.7523 16.9312 19.6263 16.7757 19.44C14.2212 16.4529 11.6787 13.4609 9.14219 10.4638C8.51405 9.72333 8.66959 8.77635 9.48319 8.28271C10.2908 7.78907 11.4035 7.95025 12.0436 8.70079C14.1375 11.1488 16.2073 13.607 18.2892 16.06C18.6781 16.5235 19.0609 16.9919 19.4677 17.4453C19.8087 17.8331 20.0121 18.2512 19.9523 18.765Z" fill="white"/>
<path d="M30.7803 8.17694C31.3008 8.17191 31.6298 8.31798 31.8452 8.63532C32.0905 9.00303 32.0307 9.35563 31.7615 9.68809C30.7145 10.9776 29.6616 12.2671 28.6147 13.5566C26.9337 15.6218 25.2586 17.6871 23.5597 19.7472C23.3563 19.9941 23.3563 20.1452 23.5656 20.392C26.144 23.4495 28.7105 26.5121 31.2709 29.5797C31.8632 30.2849 31.6897 31.2168 30.906 31.6903C30.0505 32.2091 28.9737 32.0681 28.3455 31.3276C26.3534 28.9602 24.3673 26.5776 22.3811 24.2051C21.8128 23.5251 21.2445 22.8501 20.6821 22.1701C20.0899 21.4599 20.0719 20.6791 20.6462 19.9739C23.7152 16.2112 26.7901 12.4535 29.8591 8.68569C30.1163 8.38347 30.4094 8.17191 30.7803 8.17694Z" fill="white"/>
</g>
</g>
<defs>
<clipPath id="clip0_584_84">
<rect width="24" height="24" fill="white" transform="translate(8 8)"/>
</clipPath>
</defs>
</svg>
