<svg width="40" height="40" viewBox="0 0 40 40" fill="none" xmlns="http://www.w3.org/2000/svg">
<path d="M10.4745 10.3604C9.97356 13.3147 9.54855 15.934 9.50301 16.1929C9.45748 16.5736 10.0646 16.0254 13.5406 12.5533L17.639 8.45686L17.897 6.99493C18.0336 6.18782 18.1702 5.41117 18.2006 5.25889C18.2461 5.01523 18.0032 5 14.8005 5H11.37L10.4745 10.3604Z" fill="white"/>
<path d="M24.0597 10.7259C23.5284 13.8629 23.1337 16.467 23.1641 16.4975C23.1945 16.5279 25.0463 14.731 27.2776 12.4924L31.3152 8.4264L31.6036 6.70559L31.892 5H28.4616H25.0159L24.0597 10.7259Z" fill="white"/>
<path d="M14.5728 12.6751L10.5048 16.6497L9.24498 24.1878C8.54674 28.3299 7.98512 31.7259 8.0003 31.7411C8.01548 31.7563 9.86732 29.9594 12.0986 27.7665C15.8782 24.0508 16.1818 23.7157 16.2577 23.1371C16.3336 22.5431 16.3639 22.5127 16.8952 22.5127C17.4113 22.5127 17.6238 22.3299 19.9462 20L22.4507 17.4873H19.8247H17.1836L17.2898 17.0457C17.4113 16.467 18.7015 8.73096 18.6711 8.7005C18.6711 8.7005 16.8193 10.4822 14.5728 12.6751Z" fill="white"/>
<path d="M28.2643 12.6751C25.5776 15.3096 24.1811 16.7868 24.1052 17.0609C24.0445 17.3655 23.9231 17.4873 23.6802 17.4873C23.4677 17.4873 22.5418 18.3096 20.8569 20L18.3524 22.5127H20.7507C22.9212 22.5127 23.1338 22.5431 23.1338 22.7716C23.1186 22.9239 22.7846 24.9949 22.39 27.3858C21.9801 29.7766 21.6614 31.7411 21.6766 31.7411C21.6766 31.7563 23.5284 29.9746 25.7749 27.7817L29.8429 23.7766L31.1179 16.2538C31.801 12.1269 32.3626 8.73096 32.3474 8.71573C32.3322 8.7005 30.4956 10.4822 28.2643 12.6751Z" fill="white"/>
<path d="M13.237 27.9492L9.18425 32.0305L9.01728 33.2487C8.92621 33.9188 8.80478 34.5888 8.77442 34.7411C8.69852 34.9848 8.89585 35 12.1442 34.9696L15.605 34.9239L16.4853 29.7462C16.9711 26.8985 17.3505 24.4163 17.3202 24.2183C17.2898 23.9442 16.5612 24.6142 13.237 27.9492Z" fill="white"/>
<path d="M27.0499 27.9036L22.9971 31.8782L22.7694 33.2487C22.6328 33.9949 22.5266 34.7107 22.5266 34.802C22.5266 34.9543 23.3007 35 25.9267 35H29.3268L29.4178 34.5888C29.6303 33.5533 31.1786 23.9898 31.1482 23.9594C31.1179 23.9442 29.2812 25.7107 27.0499 27.9036Z" fill="white"/>
</svg>
