<svg width="41" height="40" viewBox="0 0 41 40" fill="none" xmlns="http://www.w3.org/2000/svg">
<path d="M31.0935 8.05147L27.6744 10.0809L27.6082 11.9338C27.5641 13.2794 27.6303 13.8529 27.8288 13.9632C28.292 14.2721 34.7112 14.2059 35.02 13.8971C35.1965 13.7206 35.2847 12.5515 35.2847 10.0809C35.2847 6.72794 35.1744 6 34.6229 6C34.5567 6 32.9685 6.92647 31.0935 8.05147Z" fill="white"/>
<path d="M19.9979 14.3382C18.2111 15.4191 16.667 16.3676 16.5788 16.4559C16.4906 16.5441 16.3803 19.0809 16.3141 22.0588L16.2038 27.5074L14.8803 27.5735C13.0273 27.6618 13.0053 27.6176 13.0053 23.2941C13.0053 20.2279 12.9611 19.6985 12.6523 19.5882C12.4317 19.5 10.9979 20.25 8.79202 21.5735L5.28467 23.6691V28.1471C5.28467 31.6985 5.35084 32.6912 5.59349 32.8897C5.79202 33.0662 7.00526 33.1324 9.38761 33.0882L12.895 33.0221L13.0273 31.3015C13.0935 30.1324 13.2479 29.5147 13.4685 29.3603C13.9317 29.0735 15.7406 29.1176 16.0494 29.4265C16.2038 29.5809 16.3141 30.3088 16.3141 31.1471C16.3141 31.9853 16.4244 32.7132 16.5788 32.8676C16.9538 33.2426 23.6156 33.2426 23.9906 32.8676C24.1891 32.6691 24.2553 30.1324 24.2553 22.7647C24.2553 12.8824 24.2111 12.3971 23.5053 12.3971C23.3729 12.3971 21.8067 13.2794 19.9979 14.3382Z" fill="white"/>
<path d="M27.8288 15.8823C27.6303 16.0368 27.5641 17.9118 27.6082 24.5515L27.6744 33.022L30.9832 33.0882C32.8141 33.1103 34.5126 33.0882 34.7994 33.022L35.2847 32.9118V24.5735C35.2847 18.375 35.2185 16.1691 35.02 15.9706C34.7112 15.6618 28.292 15.5956 27.8288 15.8823Z" fill="white"/>
</svg>
