<svg width="41" height="40" viewBox="0 0 41 40" fill="none" xmlns="http://www.w3.org/2000/svg">
<g clip-path="url(#clip0_584_74)">
<mask id="mask0_584_74" style="mask-type:luminance" maskUnits="userSpaceOnUse" x="9" y="3" width="22" height="34">
<path d="M31 3H9V37H31V3Z" fill="white"/>
</mask>
<g mask="url(#mask0_584_74)">
<path d="M30.9297 26.7404C28.723 26.3556 26.5164 25.9708 24.2717 25.5791C23.4346 27.2077 21.9509 27.888 20.0333 27.8811C18.1234 27.8743 16.6168 27.2352 15.7341 25.5379C13.5503 25.9227 11.3436 26.3075 9 26.7198C9.06087 25.9021 9.0837 25.1324 9.19023 24.3697C9.44894 22.5349 10.2707 20.9269 11.7013 19.58C11.9524 19.3464 12.0589 19.099 12.0361 18.7348C11.8458 15.6219 12.2187 12.5777 13.5579 9.68468C14.5699 7.49945 16.0537 5.60971 18.0702 4.08418C18.58 3.69936 19.1278 3.35577 19.6985 3.06715C19.904 2.96408 20.2997 2.98469 20.5051 3.09464C21.8063 3.83679 22.9781 4.74387 23.9292 5.82274C25.0478 7.08714 25.9609 8.48899 26.6077 10.0145C27.7719 12.777 28.198 15.6288 28.0078 18.563C27.9773 18.9959 28.0915 19.3258 28.4415 19.6625C30.2525 21.3736 30.9601 23.4832 30.983 25.8059C30.983 26.0739 30.9906 26.3487 30.9982 26.6167C31.0058 26.6305 30.9906 26.6442 30.9297 26.7404ZM29.1035 24.9263C29.1415 24.8232 29.1568 24.7957 29.1568 24.7682C29.1644 24.7064 29.1644 24.6377 29.1568 24.5758C29.0426 22.6723 28.3121 21.0162 26.7827 19.6694C26.6229 19.5319 26.4555 19.3052 26.4631 19.1265C26.5772 17.2986 26.6533 15.4707 26.0826 13.6841C25.7631 12.6808 25.5348 11.6431 25.0935 10.688C24.1347 8.61268 22.7803 6.77791 20.6953 5.45853C20.0714 5.05997 20.0105 5.05997 19.4018 5.48602C16.8223 7.27268 15.2167 9.64345 14.3341 12.4334C13.6797 14.5224 13.5199 16.6527 13.6949 18.8104C13.7253 19.1815 13.6036 19.4357 13.3068 19.6831C12.4394 20.3909 11.8458 21.2705 11.4502 22.26C11.123 23.0778 10.9479 23.923 10.9327 24.8576C12.8959 24.5071 14.7754 24.1704 16.6625 23.8337C16.7842 24.0604 16.8831 24.2666 16.9973 24.459C17.6288 25.5035 18.5952 26.1014 19.9268 26.1426C21.3041 26.1838 22.3237 25.6203 23.0314 24.5621C23.4651 23.9093 23.4651 23.9093 24.3097 24.0604C24.3478 24.0673 24.3782 24.0742 24.4162 24.0811C25.9837 24.3628 27.536 24.6445 29.1035 24.9263Z" fill="white"/>
<path d="M19.9725 37C18.8463 35.4538 17.7506 33.9695 17.4234 32.176C17.1799 30.8497 18.0397 29.5716 19.3638 29.1181C20.2616 28.8088 21.2813 29.1387 21.9509 29.9289C22.5748 30.6711 22.7727 31.5232 22.5824 32.4096C22.2096 34.1276 21.1671 35.5569 19.9725 37ZM19.8736 34.7598C19.9801 34.7598 20.0866 34.7598 20.1855 34.7529C20.528 33.997 20.9008 33.2549 21.2128 32.4852C21.4411 31.9217 21.2356 31.3857 20.8856 30.9047C20.5127 30.3825 19.8355 30.3344 19.3409 30.7673C18.892 31.159 18.6409 31.6675 18.8159 32.1966C19.1126 33.0625 19.5159 33.9008 19.8736 34.7598Z" fill="white"/>
<path d="M19.9421 10.6468C21.8976 10.5987 23.4195 12.0211 23.4271 13.6429C23.4347 15.3814 21.9357 16.7627 20.041 16.7695C18.1463 16.7764 16.7081 15.4433 16.6473 13.7116C16.594 12.2135 18.2224 10.5643 19.9421 10.6468ZM21.8824 13.7528C21.8976 12.7908 21.0986 12.0142 20.0714 12.0005C19.0061 11.9868 18.0626 12.7427 18.0778 13.7253C18.093 14.6736 18.8996 15.4227 19.9421 15.4364C21.0454 15.4433 21.8672 14.7355 21.8824 13.7528Z" fill="white"/>
</g>
</g>
<defs>
<clipPath id="clip0_584_74">
<rect width="22" height="34" fill="white" transform="translate(9 3)"/>
</clipPath>
</defs>
</svg>
