<svg width="41" height="40" viewBox="0 0 41 40" fill="none" xmlns="http://www.w3.org/2000/svg">
<g clip-path="url(#clip0_584_119)">
<mask id="mask0_584_119" style="mask-type:luminance" maskUnits="userSpaceOnUse" x="2" y="4" width="35" height="32">
<path d="M37 4H2V35.3793H37V4Z" fill="white"/>
</mask>
<g mask="url(#mask0_584_119)">
<path d="M24.2179 9.31289C26.0117 8.05872 27.778 6.81587 29.5544 5.5866C30.2384 5.11346 30.92 4.62749 31.6536 4.23358C31.9589 4.06983 32.4085 4.06303 32.7698 4.11963C32.9931 4.15434 33.2818 4.41695 33.3386 4.62749C33.3882 4.8101 33.2124 5.13006 33.0349 5.27419C32.3919 5.79638 31.7111 6.27784 31.0343 6.76154C29.3367 7.97345 27.6328 9.17858 25.8342 10.4546C26.5812 10.93 27.2667 11.3828 27.9696 11.8092C28.7585 12.2876 28.7703 12.2838 29.5355 11.7329C31.4611 10.3452 33.3726 8.94012 35.3116 7.56897C35.6444 7.33353 36.0704 7.15771 36.4758 7.09961C36.7087 7.0664 37.129 7.27166 37.2079 7.46484C37.2963 7.68217 37.189 8.11004 37.0021 8.26776C36.0877 9.03972 35.1317 9.76717 34.1661 10.4818C32.9023 11.4175 31.6165 12.3261 30.2684 13.298C30.5524 13.501 30.8143 13.664 31.0454 13.8602C31.6868 14.4043 32.3959 14.8986 32.9284 15.5294C33.7275 16.4757 33.7661 17.6831 33.7536 18.8324C33.7369 20.3763 33.6233 21.9225 33.4837 23.4619C33.4112 24.261 32.7919 24.8006 32.2121 25.316C31.8989 25.5937 31.5353 25.8224 31.1803 26.0533C30.819 26.2887 30.8505 26.4797 31.1851 26.7158C32.7304 27.8093 34.2702 28.9102 35.8054 30.0165C36.2219 30.3161 36.6234 30.6368 37.0179 30.9628C37.286 31.1846 37.5062 31.4495 37.3041 31.814C37.1046 32.1739 36.7386 32.3648 36.3583 32.2525C35.9277 32.1249 35.5119 31.8948 35.1436 31.6382C33.4159 30.4324 31.7088 29.2 29.9876 27.9851C29.7721 27.8334 29.5292 27.7082 29.2815 27.6108C28.9171 27.4674 28.611 27.4108 28.2449 27.7594C27.759 28.2221 27.1445 28.5638 26.5687 28.9344C26.2184 29.1593 26.3035 29.3246 26.5836 29.5185C28.2702 30.6904 29.9718 31.8435 31.6308 33.0508C32.2855 33.5277 33.1382 33.8281 33.4444 34.671C33.4672 34.7336 33.4885 34.7963 33.5161 34.8747C33.2164 35.0248 32.9371 35.1804 32.6452 35.3079C32.2224 35.4928 31.876 35.2853 31.5471 35.0656C30.0735 34.0817 28.6054 33.0901 27.1311 32.1068C26.3525 31.5884 25.5604 31.0888 24.7843 30.5667C24.5034 30.3772 24.3117 30.4217 24.0341 30.6127C23.0171 31.3115 22.0476 32.0864 20.8171 32.4546C19.5982 32.82 18.4679 32.6147 17.4123 31.9966C16.7103 31.5853 16.0343 31.128 15.3763 30.6542C15.0173 30.3953 14.7373 30.3863 14.3753 30.6398C12.5743 31.8963 10.7607 33.1361 8.9503 34.3798C8.58506 34.6302 8.24348 34.9434 7.83723 35.0997C7.46331 35.2429 7.01365 35.2633 6.60424 35.2377C6.41413 35.2257 6.09306 34.9789 6.09069 34.834C6.08518 34.5624 6.18378 34.1858 6.3873 34.0295C7.32605 33.3089 8.31606 32.6494 9.28714 31.968C10.4326 31.1651 11.5796 30.3628 12.7234 29.557C12.8764 29.4491 13.0137 29.3208 13.1951 29.1714C12.5948 28.7413 12.0481 28.3481 11.4999 27.9571C11.279 27.7995 11.0739 27.6017 10.8262 27.4998C10.3079 27.2863 9.90166 27.5965 9.52143 27.8643C7.65263 29.1796 5.80355 30.5206 3.92213 31.8186C3.60895 32.0344 3.17192 32.1618 2.78617 32.1755C2.56293 32.183 2.22451 31.9219 2.13063 31.7054C2.0549 31.531 2.19216 31.1507 2.36571 31.0179C3.74463 29.9584 5.15354 28.9352 6.55533 27.9028C7.12568 27.4833 7.69602 27.0629 8.27346 26.6532C8.54798 26.4585 8.5472 26.2744 8.30028 26.0676C8.00367 25.8186 7.7331 25.531 7.40729 25.3251C6.29264 24.6203 5.91872 23.5668 5.89348 22.3768C5.85798 20.7226 5.85404 19.067 5.89348 17.4137C5.9203 16.2855 6.45199 15.3702 7.4002 14.6805C7.90034 14.3167 8.38548 13.9334 8.87615 13.5576C9.14515 13.3516 9.18223 13.2233 8.84065 12.9856C6.86298 11.6099 4.90898 10.2026 2.95262 8.79901C2.72307 8.63449 2.51638 8.43829 2.31602 8.2421C1.80247 7.73952 1.91764 7.24525 2.64102 7.13054C3.00311 7.07319 3.48589 7.18186 3.78645 7.38712C5.47065 8.53413 7.11463 9.73547 8.77438 10.9149C9.30845 11.2945 9.85749 11.6552 10.3829 12.0446C10.7513 12.3178 11.0494 12.0657 11.3106 11.9193C11.8951 11.5911 12.437 11.1949 12.9995 10.8297C13.4428 10.5414 13.4602 10.4244 13.0366 10.1173C10.9295 8.58997 8.81699 7.06943 6.70679 5.54661C6.67839 5.52623 6.64604 5.50963 6.61686 5.48926C6.24452 5.22364 5.88717 4.92707 6.08754 4.42827C6.22875 4.07662 7.04679 3.86759 7.48854 4.09473C8.07073 4.39431 8.62924 4.7437 9.16329 5.11723C11.0053 6.40612 12.8354 7.7101 14.6624 9.01859C14.9613 9.23215 15.2257 9.2744 15.5404 9.06462C15.9964 8.76127 16.4957 8.51074 16.9241 8.17644C18.5263 6.92529 20.8526 6.9502 22.8184 8.35302C23.2767 8.68053 23.7485 8.99218 24.2179 9.31289ZM20.01 25.3062C21.1232 25.3816 22.1392 25.1062 23.0488 24.4709C25.7174 22.607 28.3641 20.7136 31.0644 18.8927C32.6996 17.7895 32.6672 15.6237 31.2143 14.528C30.4396 13.944 29.5994 13.4391 28.7948 12.8898C27.2266 11.8205 25.6433 10.7708 24.1035 9.66454C22.6488 8.61865 21.1318 7.76442 19.2283 8.04967C18.4955 8.15985 17.6813 8.3002 17.096 8.69034C14.2688 10.5723 11.5235 12.5668 8.71364 14.4745C7.03417 15.6147 7.15408 17.7638 8.60163 18.8308C9.63503 19.593 10.7355 20.2707 11.8012 20.9929C13.315 22.0176 14.8446 23.0227 16.3301 24.0844C17.4313 24.8716 18.5941 25.4029 20.01 25.3062ZM15.6098 29.5661C15.7684 29.7252 16.6322 30.3146 17.0203 30.5644C17.6269 30.9537 18.2131 30.7795 18.299 30.0965C18.3921 29.3554 18.4174 28.5752 18.2698 27.8492C18.1776 27.3935 17.8029 26.8857 17.3998 26.6094C14.4273 24.5728 11.4171 22.5866 8.41467 20.5899C7.78516 20.1711 7.19588 20.353 7.10674 21.0646C7.01523 21.7889 7.00892 22.5466 7.12962 23.2642C7.19983 23.6823 7.528 24.1155 7.8601 24.4233C8.29476 24.8255 8.83749 25.1266 9.35657 25.4352C9.48357 25.5108 9.61373 25.3409 9.69261 25.2655C9.21378 24.7953 8.929 24.6248 8.42176 24.3327C7.76781 23.9562 7.49486 23.3774 7.42938 22.7042C7.38679 22.2622 7.41834 21.807 7.47672 21.3648C7.56269 20.7166 7.74651 20.6495 8.29318 21.0147C11.1157 22.896 13.9382 24.7788 16.76 26.6615C17.9124 27.4304 18.3496 28.7374 17.8888 30.0241C17.7658 30.3674 17.5773 30.4572 17.2507 30.2187C16.9359 29.9886 16.4263 29.6 16.0816 29.4166C15.9522 29.3457 15.9072 29.5661 15.6098 29.5661ZM23.3761 29.7999C23.3714 29.738 22.9865 29.5947 22.8437 29.6663C22.5589 29.8097 22.3095 30.015 22.0406 30.1871C21.6217 30.4557 21.4229 30.3983 21.3558 29.9132C21.2833 29.3879 21.1973 28.8303 21.3094 28.3255C21.4143 27.8515 21.6501 27.272 22.0319 27.0086C25.0241 24.9447 28.0674 22.9488 31.0887 20.9226C31.4619 20.6721 31.6923 20.7846 31.7317 21.1543C31.7956 21.749 31.8311 22.3557 31.7767 22.9488C31.7214 23.557 31.3664 24.0271 30.7992 24.3561C30.3276 24.6301 29.8897 24.9576 29.4377 25.2617C29.4471 25.3183 29.8297 25.47 29.9559 25.399C30.3425 25.1809 30.6872 24.8957 31.0722 24.6753C31.8816 24.2143 32.2003 23.4907 32.2641 22.6485C32.2981 22.2056 32.2697 21.7513 32.2081 21.3098C32.0716 20.3258 31.5494 20.1152 30.7039 20.6789C27.8395 22.5889 24.9759 24.4995 22.1123 26.411C20.8999 27.22 20.4029 28.9691 21.0087 30.2851C21.2438 30.7968 21.6469 30.9259 22.1377 30.6224C22.5596 30.3621 22.9644 30.0754 23.3761 29.7999ZM14.3271 28.2636C13.4302 27.6643 12.5396 27.0569 11.6285 26.4781C11.5235 26.4117 11.3555 26.6057 11.1922 26.6238C12.075 27.3369 12.9151 27.9459 13.7955 28.5103C13.9264 28.594 14.3146 28.3307 14.3271 28.2636ZM24.9318 28.262C24.9349 28.3194 25.3065 28.4952 25.4185 28.4235C26.3122 27.8538 27.1879 27.2592 28.0698 26.672C28.0611 26.623 27.6612 26.46 27.5444 26.5347C26.6624 27.0947 25.7995 27.6824 24.9318 28.262Z" fill="white"/>
<path d="M31.0722 16.4304C31.1266 17.2914 30.4877 17.7208 29.8763 18.1501C27.5554 19.7794 25.2039 21.3686 22.9098 23.0311C21.7243 23.8898 20.4526 24.3689 18.9861 24.1297C18.3661 24.0287 17.7248 23.7705 17.2048 23.4287C15.1255 22.0599 13.091 20.6291 11.0376 19.2232C10.3205 18.7327 9.54429 18.3064 8.88796 17.7503C7.89479 16.9088 7.98551 15.7943 8.94318 15.1015C11.6466 13.1463 14.4099 11.2673 17.1631 9.37552C18.6051 8.3847 20.8399 8.52883 22.2606 9.55284C23.7263 10.6086 25.2457 11.5963 26.7429 12.6121C27.9665 13.4421 29.2042 14.2533 30.4103 15.1061C30.8505 15.4177 31.1037 15.8743 31.0722 16.4304ZM20.1813 11.1994C20.1813 12.6875 20.1813 14.1236 20.1813 15.6464C21.2438 14.8367 22.2417 14.0768 23.279 13.2867C22.2497 12.5743 21.303 11.9186 20.3548 11.2651C20.3161 11.2379 20.2632 11.2296 20.1813 11.1994ZM17.8778 15.9143C17.41 15.6034 17.0147 15.3355 16.614 15.0744C16.035 14.6971 15.4599 14.0405 14.8707 14.0277C14.2561 14.0141 13.6235 14.6186 13.0042 14.9612C12.5214 15.2283 12.0458 15.509 11.5677 15.7837C11.5827 15.8275 11.5985 15.8713 11.6135 15.915C13.6708 15.9143 15.7289 15.9143 17.8778 15.9143ZM21.4434 17.084C21.4316 17.1307 21.4205 17.1775 21.4087 17.2235C22.3639 17.803 23.3169 18.3856 24.2786 18.9568C24.3653 19.0082 24.5358 19.0308 24.6114 18.984C25.5983 18.3712 26.5749 17.7434 27.6098 17.084C25.4902 17.084 23.4668 17.084 21.4434 17.084ZM20.2491 17.6114C20.2491 19.0345 20.2491 20.4094 20.2491 21.8817C21.2809 21.186 22.1984 20.5679 23.1734 19.9108C22.1605 19.1146 21.2083 18.366 20.2491 17.6114ZM27.9168 15.9709C27.9302 15.9399 27.9428 15.909 27.9562 15.878C27.4324 15.5883 26.9102 15.2962 26.384 15.0102C25.7908 14.6872 25.1771 14.0934 24.6052 14.1266C24.004 14.1613 23.4384 14.7952 22.8625 15.1755C22.5091 15.4087 22.1652 15.6569 21.7123 15.9716C23.8857 15.9709 25.9012 15.9709 27.9168 15.9709ZM15.7171 13.3961C16.7584 14.1062 17.7137 14.7582 18.6934 15.426C18.6934 14.033 18.6934 12.7245 18.6934 11.3586C17.6844 12.0491 16.7379 12.6973 15.7171 13.3961ZM18.7589 21.9126C18.7589 20.4887 18.7589 19.1153 18.7589 17.6242C17.7594 18.3962 16.8744 19.0799 15.9348 19.8058C16.9067 20.531 17.8209 21.2131 18.7589 21.9126ZM17.5977 17.1608C15.751 17.1608 14.0313 17.1608 12.2051 17.1608C13.1478 17.8453 13.9997 18.4649 14.8502 19.0821C15.7652 18.4429 16.6337 17.8355 17.5977 17.1608Z" fill="white"/>
</g>
</g>
<defs>
<clipPath id="clip0_584_119">
<rect width="35" height="31.3793" fill="white" transform="translate(2 4)"/>
</clipPath>
</defs>
</svg>
