<svg width="41" height="40" viewBox="0 0 41 40" fill="none" xmlns="http://www.w3.org/2000/svg">
<g clip-path="url(#clip0_584_100)">
<mask id="mask0_584_100" style="mask-type:luminance" maskUnits="userSpaceOnUse" x="1" y="1" width="38" height="38">
<path d="M39 1H1V39H39V1Z" fill="white"/>
</mask>
<g mask="url(#mask0_584_100)">
<path d="M19.9923 1.00983C22.9823 1.00983 25.9731 0.981333 28.9625 1.02408C30.1216 1.04037 31.2991 1.11636 32.4331 1.34164C35.8717 2.02493 38.3637 4.76488 38.7892 8.26207C38.9161 9.30567 38.9813 10.3635 38.9847 11.4153C39.003 17.1442 39.0084 22.8731 38.9813 28.602C38.9758 29.7935 38.9059 30.9993 38.7085 32.1718C38.1065 35.7532 35.335 38.3567 31.7299 38.7998C30.8728 38.905 30.0062 38.983 29.1431 38.9857C23.0522 39.0013 16.9614 39.0102 10.8713 38.9797C9.74478 38.9742 8.59856 38.8798 7.49712 38.6518C4.08561 37.9462 1.62079 35.2042 1.20546 31.724C1.08602 30.7265 1.01816 29.7162 1.01476 28.712C0.99712 22.9044 0.991691 17.0967 1.01884 11.289C1.02427 10.1294 1.10027 8.95555 1.29368 7.81356C1.89903 4.24647 4.68485 1.63273 8.29249 1.20729C9.38374 1.07836 10.4886 1.02476 11.588 1.01458C14.3894 0.988119 17.1908 1.00576 19.9923 1.00576V1.00983ZM20.001 2.62001C20.001 2.61526 20.001 2.61051 20.001 2.60508C17.294 2.60508 14.5868 2.58676 11.8798 2.61322C10.7051 2.62476 9.52286 2.65869 8.359 2.80593C5.97493 3.1072 4.28988 4.41475 3.28617 6.59355C2.672 7.92619 2.62043 9.35928 2.61703 10.7869C2.60414 16.8307 2.60346 22.8752 2.61974 28.9189C2.62246 29.8255 2.68489 30.7388 2.80773 31.6365C3.14501 34.0968 4.50161 35.8115 6.76895 36.7913C8.01901 37.3322 9.36406 37.3743 10.6969 37.3777C16.7245 37.3912 22.7529 37.3918 28.7806 37.3749C29.7342 37.3722 30.6944 37.3132 31.639 37.1862C34.0388 36.8632 35.7359 35.5652 36.7296 33.3532C37.3241 32.0294 37.379 30.6152 37.3824 29.2039C37.396 23.2701 37.3973 17.3362 37.3796 11.4024C37.377 10.3696 37.3186 9.33078 37.1877 8.30754C36.9454 6.41848 36.0021 4.93384 34.4337 3.83867C33.0846 2.89617 31.5447 2.64444 29.9628 2.62884C26.6423 2.59761 23.3216 2.62001 20.001 2.62001Z" fill="white"/>
<path d="M22.1007 12.3509C17.4155 17.2798 12.7301 22.2088 7.94365 27.2436C7.94365 22.772 7.94365 18.4348 7.94365 14.0459C7.33355 14.0459 6.79131 14.0459 6.22058 14.0459C6.22058 13.4346 6.22058 12.8748 6.22058 12.2729C7.66744 12.2729 9.12108 12.2729 10.6358 12.2729C10.6358 14.2434 10.6358 16.2282 10.6358 18.3398C11.4902 17.554 12.2496 16.8578 13.0063 16.159C14.3351 14.9321 15.6597 13.7012 16.9933 12.4799C17.1128 12.3706 17.2823 12.2499 17.4304 12.2478C18.9681 12.2309 20.5059 12.2376 22.0444 12.2376C22.0627 12.2756 22.0817 12.313 22.1007 12.3509Z" fill="white"/>
<path d="M18.7673 26.5379C19.1677 26.5379 19.528 26.5542 19.8864 26.5338C20.4293 26.5033 20.5561 26.3628 20.603 25.8079C20.6118 25.6999 20.6234 25.5927 20.637 25.4503C21.4249 25.4503 22.1985 25.4503 22.9884 25.4503C22.9884 26.4347 22.9884 27.386 22.9884 28.3646C20.7984 28.3646 18.6357 28.3646 16.3622 28.3646C16.409 27.3685 16.3689 26.373 16.5393 25.4155C16.6153 24.9868 17.0599 24.5688 17.4311 24.258C18.2135 23.6032 19.0578 23.0231 19.8762 22.4111C19.9895 22.3261 20.1014 22.2401 20.2088 22.147C20.5337 21.8654 20.7143 21.5181 20.5181 21.1028C20.3309 20.7059 19.9576 20.6265 19.5545 20.6916C19.1026 20.7642 18.8005 21.0125 18.7551 21.4869C18.7286 21.7623 18.7503 22.0426 18.7503 22.3419C18.0024 22.3419 17.3312 22.3419 16.5902 22.3419C16.5902 21.552 16.5807 20.7717 16.6018 19.992C16.6044 19.8896 16.7429 19.7497 16.8522 19.6961C18.434 18.9226 20.0764 18.7557 21.7417 19.3515C22.7645 19.7172 23.2518 20.9339 22.8697 22.1837C22.7258 22.654 22.4225 23.1397 22.0553 23.4627C21.2076 24.2084 20.2732 24.8551 19.3801 25.5493C19.0754 25.7855 18.7218 26.0011 18.7673 26.5379Z" fill="white"/>
<path d="M30.4833 19.3827C30.4833 17.8844 30.4799 16.4874 30.4908 15.0903C30.4914 14.9919 30.5742 14.8405 30.6584 14.8038C31.6608 14.3676 32.6705 13.9482 33.774 13.4841C33.774 13.8424 33.7733 14.1158 33.774 14.3892C33.7761 15.4424 33.7855 16.4948 33.7733 17.548C33.7713 17.6924 33.6994 17.9171 33.5942 17.9673C32.5924 18.4436 31.5773 18.89 30.4833 19.3827Z" fill="white"/>
<path d="M29.5583 19.3765C29.0473 19.1459 28.5953 18.9423 28.1434 18.7373C27.6147 18.4978 27.0793 18.2719 26.5635 18.0066C26.4284 17.9374 26.2696 17.7474 26.267 17.611C26.2446 16.277 26.2533 14.9423 26.2533 13.5479C26.4019 13.5879 26.518 13.6063 26.6239 13.6497C27.5088 14.0127 28.3944 14.3744 29.272 14.7551C29.3894 14.8059 29.544 14.9559 29.5455 15.0617C29.5638 16.4731 29.5583 17.8844 29.5583 19.3765Z" fill="white"/>
<path d="M26.3476 12.7466C27.5468 12.3551 28.7066 11.9758 29.8685 11.6005C29.9396 11.5774 30.0299 11.5659 30.0991 11.5876C31.2915 11.9635 32.4818 12.3449 33.6796 12.8233C32.9203 13.1028 32.1351 13.3281 31.4083 13.6755C30.4643 14.1253 29.5882 14.1389 28.6428 13.6755C27.9574 13.3389 27.2068 13.1347 26.4854 12.8701C26.4583 12.8592 26.4393 12.8294 26.3476 12.7466Z" fill="white"/>
</g>
</g>
<defs>
<clipPath id="clip0_584_100">
<rect width="38" height="38" fill="white" transform="translate(1 1)"/>
</clipPath>
</defs>
</svg>
