<svg width="40" height="40" viewBox="0 0 40 40" fill="none" xmlns="http://www.w3.org/2000/svg">
<rect width="40" height="40" rx="5" fill="black" fill-opacity="0.2"/>
<path d="M23.5237 12.7294H11.7246C11.3746 12.7294 11.0497 12.742 10.7497 12.7547C7.78744 12.9317 7 14.0318 7 17.4461V18.1795C7 18.875 7.56245 19.444 8.2499 19.444H26.9984C27.6858 19.444 28.2483 18.875 28.2483 18.1795V17.4461C28.2483 13.6778 27.2983 12.7294 23.5237 12.7294Z" fill="white"/>
<path d="M8.2499 21.3391C7.56245 21.3391 7 21.9081 7 22.6036V26.2833C7 30.0516 7.94992 31 11.7246 31H23.5237C27.2359 31 28.2108 30.0896 28.2483 26.4857V22.6036C28.2483 21.9081 27.6858 21.3391 26.9984 21.3391H8.2499ZM13.1995 27.9146H11.0622C10.5497 27.9146 10.1247 27.4846 10.1247 26.9662C10.1247 26.4477 10.5497 26.0178 11.0622 26.0178H13.212C13.7245 26.0178 14.1494 26.4477 14.1494 26.9662C14.1494 27.4846 13.7245 27.9146 13.1995 27.9146ZM20.1864 27.9146H15.8868C15.3743 27.9146 14.9494 27.4846 14.9494 26.9662C14.9494 26.4477 15.3743 26.0178 15.8868 26.0178H20.1864C20.6989 26.0178 21.1238 26.4477 21.1238 26.9662C21.1238 27.4846 20.7114 27.9146 20.1864 27.9146Z" fill="white"/>
<path d="M32 21.3039V14.6777C32 10.7198 29.7627 9 26.388 9H15.2263C14.2764 9 13.4265 9.1391 12.6765 9.42994C12.0891 9.64491 11.5641 9.96104 11.1392 10.3783C10.9142 10.5933 11.0892 10.9474 11.4141 10.9474H25.0006C27.8128 10.9474 30.0876 13.2488 30.0876 16.094V25.1607C30.0876 25.4768 30.4251 25.6538 30.6501 25.4262C31.5125 24.5031 32 23.1501 32 21.3039Z" fill="white"/>
</svg>
