<svg width="40" height="40" viewBox="0 0 40 40" fill="none" xmlns="http://www.w3.org/2000/svg">
<rect width="40" height="40" rx="5" fill="black" fill-opacity="0.2"/>
<g clip-path="url(#clip0_598_74)">
<path d="M29.9606 13.669L20.3918 8.18564C20.1784 8.06402 19.9368 8.00003 19.6908 8.00003C19.4449 8.00003 19.2032 8.06402 18.9898 8.18564L9.42104 13.669C9.20768 13.7911 9.03045 13.967 8.90717 14.1788C8.78389 14.3907 8.71891 14.631 8.71876 14.8757V25.8419C8.71876 26.3372 8.98762 26.7987 9.42104 27.0487L18.9898 32.532C19.2034 32.6542 19.4457 32.7181 19.6921 32.7174C19.939 32.7174 20.1811 32.6523 20.3944 32.532L29.9632 27.0487C30.1765 26.9265 30.3537 26.7508 30.4769 26.539C30.6002 26.3273 30.6652 26.087 30.6655 25.8424V14.8757C30.6655 14.381 30.3966 13.919 29.9632 13.669H29.9606ZM19.9075 19.6789C19.8416 19.7166 19.7669 19.7365 19.6908 19.7365C19.6147 19.7365 19.54 19.7166 19.4741 19.6789L10.1715 14.3487L19.4741 9.02054C19.5404 8.98387 19.615 8.96462 19.6908 8.96462C19.7667 8.96462 19.8413 8.98387 19.9075 9.02054L29.2101 14.3497L19.9075 19.6789ZM18.9898 20.5101C19.058 20.5487 19.1303 20.5825 19.2079 20.6091V31.5414L9.9053 26.2148C9.8394 26.1771 9.7846 26.1228 9.74635 26.0575C9.7081 25.9922 9.68773 25.918 9.68728 25.8424V15.181L18.9898 20.5101Z" fill="#FAFAFA"/>
</g>
<defs>
<clipPath id="clip0_598_74">
<rect width="23" height="25" fill="white" transform="translate(8 8)"/>
</clipPath>
</defs>
</svg>
