<svg width="40" height="40" viewBox="0 0 40 40" fill="none" xmlns="http://www.w3.org/2000/svg">
<rect width="40" height="40" rx="5" fill="black"/>
<path d="M10 7.99998C11.5 7.99998 12.6667 8.66665 13.8333 9.66665C14.1667 9.99998 14.5 10.3333 14.8333 10.6666C15.3333 11.1666 15.8333 11.1666 16.5 11.1666C17.6667 11 18.6667 10.6666 19.8333 10.6666C20.1667 10.6666 20.5 10.6666 20.8333 10.8333C21.6667 11.1666 22.3333 11 23.1667 10.6666C24.3333 9.99998 25.6667 9.33331 26.8333 8.83331C28 8.33331 29.1667 7.83331 30.5 7.83331C31.8333 7.83331 32.6667 8.49998 33.3333 9.49998C33.6667 9.99998 33.5 10.5 33.3333 11C33 12.5 32.1667 13.5 30.8333 14.1666C30.1667 14.5 29.6667 14.8333 29 15.1666C28 15.5 27.5 16.3333 27.3333 17.3333C26.8333 20.3333 26.3333 23.1666 25.5 26C24.8333 28.1666 24 30.1666 22.6667 31.8333C21.3333 33.3333 19.8333 34.3333 17.8333 34.3333C16.8333 34.3333 16.1667 33.6666 15.5 33.1666C14.1667 32 13.6667 30.5 13.3333 29C13.1667 28.1666 13 27.3333 13 26.5C13.3333 23.3333 12.8333 20.6666 12.1667 18C12 17.3333 11.6667 16.5 11.5 15.8333C11.5 15 10.8333 14.3333 10.3333 13.8333C9.66667 13.3333 9.00001 12.8333 8.50001 12.1666C7.66667 11.1666 7.50001 9.99998 8.16667 8.83331C8.50001 8.16665 9.00001 7.99998 10 7.99998Z" fill="#FEFEFE"/>
<path d="M15.8333 30.8333C15.8333 29.1667 16.5 28 17.8333 27.5C19.1666 27 20.6666 27.6667 21.3333 28.8333C22 30 21.5 31.3333 20.3333 32.3333C19.6666 32.8333 19 33.1667 18.1666 33.1667C17 33.3333 15.8333 32.6667 15.8333 30.8333Z" fill="black"/>
<path d="M20.8333 19.5C21 18.5 21.3333 17.5 22.3333 16.8333C23 16.3333 23.6666 16.5 24.1666 17.1667C25 18.3333 25.3333 19.6667 24.6666 21C24.3333 21.6667 23.8333 22 23.1666 21.8333C22.8333 21.8333 22.5 21.6667 22 21.6667C21.3333 21.3333 20.8333 20.6667 20.8333 19.5Z" fill="black"/>
<path d="M15.5 20.8333C14.3333 20.8333 13.8333 19.8333 14 18.8333C14 18.5 14.1667 18.3333 14.1667 18C14.5 17 15.6667 16.8333 16.5 17.5C17.3333 18.1666 17.3333 19.6666 16.5 20.3333C16.1667 20.8333 15.8333 21 15.5 20.8333Z" fill="black"/>
<path d="M25.1666 13.5C25 13.5 25 13.5 25 13.3333C25 13 24.6666 13 24.5 13C24.3333 13 24.3333 12.8333 24.3333 12.6667C24.3333 12.5 24.5 12.5 24.6666 12.5C24.8333 12.5 25.1666 12.5 25.1666 12.1667C25.1666 11.8333 25 11.6667 24.8333 11.6667C24.6666 11.6667 24.5 11.5 24.6666 11.3333C24.6666 11.1667 24.8333 11.1667 25 11.1667C25.3333 11.1667 25.6666 11.1667 26 10.8333C26.1666 10.6667 26.3333 10.8333 26.5 11C26.6666 11.1667 26.5 11.1667 26.5 11.3333C26.5 11.6667 26 11.6667 25.8333 12C25.6666 12.3333 25.6666 12.6667 25.6666 13.1667C25.5 13.3333 25.5 13.5 25.1666 13.5Z" fill="#040404"/>
</svg>
