<svg width="40" height="40" viewBox="0 0 40 40" fill="none" xmlns="http://www.w3.org/2000/svg">
<g clip-path="url(#clip0_657_170)">
<rect width="40" height="40" rx="20" fill="#242328"/>
<path fill-rule="evenodd" clip-rule="evenodd" d="M13.3468 10.0001L27.0703 10C27.5558 10 28.0409 10.0713 28.548 10.3077C29.1557 10.591 29.478 11.0375 29.7038 11.3678C29.7214 11.3935 29.7378 11.4199 29.753 11.447C30.0185 11.9196 30.1553 12.4299 30.1553 12.9787C30.1553 13.5002 30.0312 14.0684 29.753 14.5636C29.7504 14.5684 29.7477 14.5731 29.745 14.5778L21.0747 29.4714C20.8835 29.7999 20.5316 30.0013 20.1516 30C19.7715 29.9987 19.421 29.7946 19.2322 29.4648L10.7211 14.603C10.7187 14.599 10.7162 14.595 10.7138 14.5909C10.519 14.2699 10.2178 13.7736 10.1651 13.133C10.1167 12.544 10.2491 11.9538 10.5451 11.442C10.841 10.9302 11.2866 10.5211 11.8225 10.2706C12.3972 10.0021 12.9795 10.0001 13.3468 10.0001ZM19.0915 12.1277H13.3468C12.9694 12.1277 12.8245 12.1509 12.7232 12.1983C12.5832 12.2636 12.4655 12.3712 12.3869 12.5072C12.3082 12.6432 12.2727 12.8009 12.2856 12.9587C12.293 13.0492 12.3299 13.1526 12.5474 13.5113C12.552 13.5189 12.5564 13.5265 12.5608 13.5341L19.0915 24.9378V12.1277ZM21.2192 12.1277V24.9942L27.9011 13.516C27.9765 13.3789 28.0277 13.1809 28.0277 12.9787C28.0277 12.8147 27.9937 12.6723 27.9176 12.5255C27.8379 12.4107 27.7893 12.35 27.7486 12.3084C27.7138 12.2728 27.6869 12.2538 27.649 12.2361C27.491 12.1625 27.3294 12.1277 27.0703 12.1277H21.2192Z" fill="white"/>
</g>
<defs>
<clipPath id="clip0_657_170">
<rect width="40" height="40" rx="20" fill="white"/>
</clipPath>
</defs>
</svg>
