<svg width="40" height="40" viewBox="0 0 40 40" fill="none" xmlns="http://www.w3.org/2000/svg">
<rect width="40" height="40" rx="5" fill="black"/>
<path d="M13.5012 28.4H26.4C28.7712 28.4 30.275 25.8412 29.0812 23.7737L21.1212 9.97623C20.6012 9.07498 19.3 9.07498 18.78 9.97623L10.8175 23.7737C9.62624 25.8387 11.1287 28.4 13.4987 28.4H13.5012ZM21.1275 14.1137L22.8612 17.4687L27.045 24.95C27.3212 25.4287 26.98 26.0425 26.4025 26.0425H21.13V14.1125L21.1275 14.1137ZM12.86 24.9525L17.0412 17.4675L18.775 14.1137V26.045H13.5025C12.925 26.045 12.5837 25.4312 12.86 24.9525Z" fill="white"/>
</svg>
