<svg width="40" height="40" viewBox="0 0 40 40" fill="none" xmlns="http://www.w3.org/2000/svg">
<rect width="40" height="40" rx="5" fill="#0CABF3"/>
<path d="M28.2766 15.7998C28.2766 18.4888 27.4333 20.5481 25.7521 21.9726C24.071 23.3969 21.68 24.1118 18.5789 24.1118H16.2999V33H11V8H18.9898C22.0213 8 24.3269 8.65084 25.907 9.95797C27.4868 11.2651 28.2766 13.2125 28.2766 15.7998ZM16.2999 19.7638H18.0451C19.673 19.7638 20.8952 19.4437 21.7066 18.798C22.5178 18.1526 22.9181 17.2189 22.9181 15.9865C22.9181 14.7435 22.5765 13.8258 21.8987 13.2336C21.2209 12.6415 20.1587 12.3429 18.707 12.3429H16.2999V19.7638Z" fill="#FAFAFA"/>
</svg>
