<svg width="40" height="40" viewBox="0 0 40 40" fill="none" xmlns="http://www.w3.org/2000/svg">
<rect width="40" height="40" rx="5" fill="black" fill-opacity="0.2"/>
<path d="M10 12.4417L13.0402 17.8531V21.1539L10.0036 26.5548L10 12.4417Z" fill="#5B57A2"/>
<path d="M21.673 15.8839L24.5217 14.1452L30.3519 14.1398L21.673 19.4344V15.8839Z" fill="#D90751"/>
<path d="M21.6568 12.4098L21.6729 19.5744L18.6255 17.7098V7L21.6568 12.4098Z" fill="#FAB718"/>
<path d="M30.3517 14.1398L24.5214 14.1452L21.6568 12.4098L18.6255 7L30.3517 14.1398Z" fill="#ED6F26"/>
<path d="M21.6729 26.5848V23.1087L18.6255 21.2795L18.6272 32L21.6729 26.5848Z" fill="#63B22F"/>
<path d="M24.5146 24.8619L13.04 17.8531L10 12.4417L30.3395 24.8548L24.5146 24.8619Z" fill="#1487C9"/>
<path d="M18.6278 32L21.673 26.5848L24.5146 24.8619L30.3395 24.8548L18.6278 32Z" fill="#017F36"/>
<path d="M10.0035 26.5548L18.6505 21.2799L15.7435 19.5036L13.0401 21.154L10.0035 26.5548Z" fill="#984995"/>
</svg>
