<svg width="40" height="40" viewBox="0 0 40 40" fill="none" xmlns="http://www.w3.org/2000/svg">
<rect width="40" height="40" rx="5" fill="#7F9CFC"/>
<g clip-path="url(#clip0_654_84)">
<path d="M5.08961 20.0837V19.0319H9.52206C9.79882 19.0319 10.0118 18.9605 10.1609 18.8178C10.2357 18.7442 10.2942 18.6554 10.3328 18.5572C10.3713 18.459 10.389 18.3536 10.3847 18.248C10.3847 17.9894 10.3101 17.7953 10.1609 17.6658C10.0118 17.5363 9.79882 17.4719 9.52206 17.4728H6.80565C6.54962 17.4777 6.2948 17.4358 6.0534 17.349C5.8414 17.272 5.6475 17.1511 5.48402 16.9939C5.32845 16.8413 5.20649 16.657 5.12618 16.4532C5.04019 16.2348 4.99732 16.0015 5 15.7664C4.99781 15.5366 5.0377 15.3083 5.11765 15.0933C5.19357 14.8915 5.31315 14.7097 5.46756 14.5612C5.63328 14.4059 5.82847 14.2865 6.0412 14.2104C6.29197 14.1211 6.55639 14.0777 6.82211 14.0823H11.0674V15.1341H6.82211C6.58314 15.1341 6.39864 15.1986 6.26859 15.3277C6.13854 15.4568 6.07351 15.6356 6.07351 15.8642C6.07351 16.0955 6.13996 16.2743 6.27286 16.4006C6.40575 16.5268 6.58599 16.5901 6.81358 16.5905H9.52206C10.1244 16.5905 10.5814 16.7336 10.8931 17.0199C11.2048 17.3061 11.3606 17.7409 11.3606 18.3241C11.3628 18.5629 11.3242 18.8002 11.2466 19.0257C11.1739 19.2342 11.0574 19.4242 10.9053 19.5825C10.7427 19.7458 10.5469 19.8711 10.3316 19.9494C10.072 20.0434 9.79768 20.0888 9.52206 20.0837H5.08961Z" fill="white"/>
<path d="M12.247 20.0836V14.0823H13.2797V20.0836H12.247ZM17.119 20.0836L13.8088 17.4418C13.7321 17.3899 13.6714 17.3169 13.6339 17.2314C13.6088 17.1585 13.5964 17.0817 13.5973 17.0044C13.5954 16.9193 13.6121 16.8348 13.6461 16.7569C13.6975 16.6638 13.77 16.5845 13.8576 16.5255L16.9885 14.0823H18.5735L14.7031 17.013L18.6966 20.0836H17.119Z" fill="white"/>
<path d="M19.4208 20.0836V14.0823H20.4535V20.0836H19.4208Z" fill="white"/>
<path d="M22.4957 15.6922V20.0849H21.5112V14.6354C21.502 14.4702 21.5525 14.3072 21.6532 14.177C21.7009 14.121 21.7604 14.0767 21.8274 14.0475C21.8943 14.0182 21.9669 14.0047 22.0397 14.0081C22.1155 14.0082 22.1904 14.0251 22.2592 14.0576C22.3414 14.0989 22.4158 14.1548 22.4786 14.2227L26.6514 18.4243V14.0328H27.6353V19.5306C27.6353 19.7285 27.588 19.8826 27.4933 19.9927C27.4476 20.0465 27.3907 20.0893 27.3267 20.1179C27.2627 20.1465 27.1931 20.1601 27.1232 20.1579C27.0338 20.1551 26.9459 20.134 26.8648 20.0957C26.7837 20.0574 26.7111 20.0028 26.6514 19.9352L22.4957 15.6922Z" fill="white"/>
<path d="M28.6357 20.0836V19.0319H33.0687C33.3455 19.0319 33.5582 18.9605 33.707 18.8178C33.7818 18.7442 33.8405 18.6554 33.879 18.5572C33.9176 18.459 33.9352 18.3536 33.9307 18.248C33.9307 17.9893 33.8561 17.7953 33.707 17.6658C33.5578 17.5363 33.3451 17.4719 33.0687 17.4727H30.3523C30.0961 17.4776 29.8411 17.4357 29.5994 17.349C29.3876 17.272 29.1939 17.151 29.0307 16.9939C28.8749 16.8413 28.7528 16.657 28.6722 16.4531C28.5867 16.2353 28.544 16.0027 28.5467 15.7682C28.5445 15.5384 28.5844 15.3101 28.6643 15.0951C28.74 14.8933 28.8596 14.7114 29.0142 14.563C29.1798 14.4075 29.3751 14.2882 29.5879 14.2122C29.8384 14.1229 30.1026 14.0796 30.3682 14.0841H34.6141V15.1359H30.3682C30.13 15.1359 29.9457 15.2005 29.8152 15.3296C29.6848 15.4587 29.6198 15.6369 29.6202 15.8641C29.6202 16.0955 29.6866 16.2743 29.8195 16.4005C29.9524 16.5274 30.1322 16.5905 30.3602 16.5905H33.0687C33.6706 16.5905 34.1274 16.7336 34.4391 17.0198C34.7508 17.3061 34.9067 17.7408 34.9067 18.3241C34.909 18.5628 34.8707 18.8002 34.7933 19.0257C34.7205 19.2343 34.6038 19.4243 34.4513 19.5825C34.2891 19.7459 34.0935 19.8712 33.8783 19.9494C33.6185 20.0426 33.3442 20.0875 33.0687 20.0818L28.6357 20.0836Z" fill="white"/>
<path d="M5.33707 26.9254V20.924H9.66528C9.9302 20.921 10.1943 20.9543 10.4504 21.023C10.669 21.0808 10.8746 21.1803 11.0564 21.3163C11.2233 21.4442 11.3571 21.6113 11.4465 21.8032C11.5419 22.0139 11.5892 22.2438 11.5849 22.4757C11.5879 22.6459 11.5659 22.8157 11.5197 22.9793C11.4818 23.1115 11.4214 23.2359 11.3411 23.3468C11.2675 23.4465 11.1781 23.5331 11.0765 23.603C10.9803 23.6705 10.8744 23.7227 10.7626 23.7577C11.03 23.842 11.2646 24.0095 11.4331 24.2365C11.6063 24.4679 11.6928 24.7597 11.6928 25.112C11.695 25.3668 11.6482 25.6196 11.5551 25.8563C11.4699 26.0732 11.3395 26.2688 11.1728 26.4298C11.0001 26.5941 10.795 26.7193 10.5712 26.7973C10.319 26.8853 10.0538 26.9287 9.7872 26.9254H5.33707ZM7.11834 24.3145V23.4335H9.67259C9.9652 23.4335 10.182 23.3784 10.323 23.2683C10.4641 23.1581 10.5346 22.9707 10.5346 22.7059C10.5409 22.572 10.5099 22.439 10.445 22.3223C10.3831 22.2239 10.294 22.1463 10.1889 22.0989C10.0625 22.0427 9.92779 22.008 9.79024 21.9962C9.61868 21.9788 9.44633 21.9705 9.27391 21.9715H6.3734V25.8854H9.36657C9.53811 25.8865 9.70944 25.8726 9.87864 25.8439C10.0206 25.8216 10.158 25.7756 10.2852 25.7078C10.3925 25.6508 10.4836 25.5669 10.5498 25.464C10.6153 25.3519 10.6477 25.2231 10.6431 25.0928C10.6431 24.8453 10.5673 24.6541 10.4157 24.5193C10.2641 24.3844 10.0408 24.3161 9.74574 24.3145H7.11834Z" fill="white"/>
<path d="M18.7576 26.9254L17.8706 25.4145H15.0731L15.5608 24.5644H17.375L16.057 22.3192L13.3747 26.9254H12.1939L15.5937 21.1801C15.6463 21.0835 15.7184 20.9992 15.8052 20.9327C15.8906 20.8712 15.9933 20.8395 16.0979 20.8423C16.2014 20.8391 16.303 20.8709 16.3868 20.9327C16.4712 21.0006 16.5416 21.0847 16.5941 21.1801L20.0018 26.9254H18.7576Z" fill="white"/>
<path d="M22.5481 26.9254C22.1551 26.9293 21.7656 26.8492 21.4051 26.6903C21.0593 26.5376 20.7473 26.3161 20.4874 26.0388C20.2275 25.7615 20.025 25.4342 19.892 25.0761C19.746 24.6889 19.673 24.2773 19.6768 23.8628C19.6715 23.4508 19.7446 23.0415 19.892 22.6576C20.0267 22.3089 20.2318 21.9928 20.4943 21.7295C20.7553 21.4708 21.0651 21.2684 21.4051 21.1344C21.7695 20.9913 22.1574 20.9199 22.5481 20.924H25.7522V21.9758H22.5481C22.2956 21.9729 22.0451 22.022 21.8117 22.1199C21.5932 22.2121 21.3953 22.3483 21.2301 22.5202C21.0641 22.6961 20.9342 22.9037 20.8479 23.1309C20.7534 23.3812 20.7064 23.6474 20.7095 23.9154C20.7073 24.1831 20.7542 24.449 20.8479 24.6993C20.9332 24.9309 21.0632 25.1429 21.2301 25.3229C21.3948 25.4975 21.5926 25.6364 21.8117 25.7313C22.0444 25.8318 22.2952 25.8824 22.5481 25.8798H25.7522V26.9315L22.5481 26.9254Z" fill="white"/>
<path opacity="0.25" d="M34.8579 26.9217H33.0352L29.0465 23.8548L33.0803 20.9234L34.736 20.9203L30.8644 23.8511L34.8579 26.9217Z" fill="white"/>
<path opacity="0.5" d="M34.1776 20.9215H32.5926L29.2946 23.3703C29.2071 23.4291 29.1346 23.5082 29.0831 23.6011C29.0492 23.679 29.0326 23.7634 29.0343 23.8486C29.0335 23.9258 29.0459 24.0027 29.0709 24.0756C29.1085 24.1611 29.1691 24.2341 29.2459 24.286L32.556 26.9272H34.1337L34.1288 26.9235L30.1377 23.8572L34.1715 20.9258L34.1776 20.9215Z" fill="white"/>
<path opacity="0.75" d="M33.6228 20.9215H32.0379L28.7399 23.3703C28.6523 23.4291 28.5798 23.5082 28.5284 23.6011C28.4945 23.679 28.4778 23.7634 28.4796 23.8486C28.4787 23.9258 28.4911 24.0027 28.5162 24.0756C28.5537 24.1611 28.6144 24.2341 28.6911 24.286L32.0013 26.9272H33.579L33.5741 26.9235L29.5854 23.8572L33.6192 20.9258L33.6228 20.9215Z" fill="white"/>
<path d="M26.5904 20.9246V26.926H27.6231V20.9246H26.5904ZM33.0864 20.9191H31.5014L28.201 23.3679C28.1134 23.4266 28.0409 23.5058 27.9894 23.5986C27.9555 23.6765 27.9389 23.761 27.9407 23.8461C27.9398 23.9236 27.9522 24.0006 27.9772 24.0738C28.0148 24.1593 28.0755 24.2322 28.1522 24.2842L31.4624 26.9254H33.04L33.0352 26.9217L29.0465 23.8548L33.0803 20.9228L33.0864 20.9191Z" fill="white"/>
</g>
<defs>
<clipPath id="clip0_654_84">
<rect width="30" height="13" fill="white" transform="translate(5 14)"/>
</clipPath>
</defs>
</svg>
