<svg width="40" height="40" viewBox="0 0 40 40" fill="none" xmlns="http://www.w3.org/2000/svg">
<rect width="40" height="40" rx="5" fill="#FBDE1C" fill-opacity="0.2"/>
<path fill-rule="evenodd" clip-rule="evenodd" d="M18.9064 28.317L13.7602 31.5153C13.2251 31.8478 12.5255 31.6773 12.1977 31.1345C12.0376 30.8693 11.9899 30.5498 12.0654 30.2485L12.862 27.0675C13.1496 25.9191 13.9241 24.9593 14.9769 24.4465L20.5912 21.7119C20.8529 21.5844 20.9632 21.2658 20.8376 21.0003C20.7358 20.7852 20.5056 20.6649 20.274 20.7056L14.0246 21.8032C12.7542 22.0263 11.4515 21.6704 10.4633 20.8304L8.48907 19.1519C8.0081 18.743 7.94494 18.0159 8.34801 17.528C8.54405 17.2907 8.82596 17.1433 9.13024 17.1192L15.1621 16.6403C15.5883 16.6065 15.9596 16.3329 16.1232 15.9323L18.4502 10.2336C18.6904 9.64548 19.3551 9.3662 19.9348 9.60985C20.2132 9.72685 20.4344 9.95123 20.5497 10.2336L22.8767 15.9323C23.0403 16.3329 23.4116 16.6065 23.8378 16.6403L29.9029 17.1218C30.5285 17.1715 30.9959 17.7263 30.9469 18.361C30.9234 18.6663 30.781 18.9496 30.5513 19.1482L25.9259 23.1488C25.6001 23.4304 25.4581 23.8737 25.5582 24.2958L26.9802 30.2888C27.1271 30.9078 26.7516 31.5303 26.1416 31.6793C25.8483 31.751 25.5391 31.7013 25.282 31.5415L20.0935 28.317C19.7293 28.0906 19.2706 28.0906 18.9064 28.317Z" fill="#FBDE1C"/>
</svg>
