<svg width="40" height="40" viewBox="0 0 40 40" fill="none" xmlns="http://www.w3.org/2000/svg">
<rect width="40" height="40" rx="5" fill="url(#paint0_linear_654_77)" fill-opacity="0.25"/>
<g clip-path="url(#clip0_654_77)">
<path fill-rule="evenodd" clip-rule="evenodd" d="M18.9071 28.2118L13.9062 31.4149C13.3862 31.7479 12.7064 31.5772 12.3878 31.0334C12.2322 30.768 12.1858 30.448 12.2592 30.1462L13.0333 26.9605C13.3128 25.8104 14.0655 24.8492 15.0885 24.3357L20.5442 21.597C20.7987 21.4693 20.9058 21.1503 20.7837 20.8844C20.6848 20.6689 20.4612 20.5484 20.236 20.5892L14.1631 21.6885C12.9286 21.9119 11.6626 21.5555 10.7024 20.7141L8.78387 19.0332C8.31647 18.6238 8.25511 17.8956 8.64679 17.407C8.83729 17.1693 9.11124 17.0217 9.40694 16.9975L15.2685 16.5179C15.6826 16.4841 16.0435 16.2101 16.2025 15.8089L18.4637 10.1018C18.6972 9.51279 19.3431 9.2331 19.9065 9.47711C20.177 9.59429 20.3919 9.81899 20.5039 10.1018L22.7652 15.8089C22.9242 16.2101 23.2851 16.4841 23.6991 16.5179L29.593 17.0002C30.201 17.0499 30.6553 17.6055 30.6077 18.2411C30.5849 18.5469 30.4465 18.8305 30.2232 19.0296L25.7283 23.0361C25.4118 23.318 25.2739 23.762 25.3711 24.1847L26.753 30.1866C26.8957 30.8064 26.5307 31.4298 25.9379 31.579C25.653 31.6508 25.3526 31.6012 25.1027 31.4412L20.0607 28.2118C19.7067 27.9851 19.261 27.9851 18.9071 28.2118Z" fill="url(#paint1_linear_654_77)" stroke="url(#paint2_linear_654_77)" stroke-width="0.785713"/>
</g>
<defs>
<linearGradient id="paint0_linear_654_77" x1="-3.47801" y1="48.6922" x2="75.394" y2="-36.3144" gradientUnits="userSpaceOnUse">
<stop stop-color="#FDEB32"/>
<stop offset="0.439058" stop-color="#FEBD04"/>
<stop offset="1" stop-color="#D75902"/>
</linearGradient>
<linearGradient id="paint1_linear_654_77" x1="6.45666" y1="36.4401" x2="50.2744" y2="-10.7858" gradientUnits="userSpaceOnUse">
<stop stop-color="#FDEB32"/>
<stop offset="0.439058" stop-color="#FEBD04"/>
<stop offset="1" stop-color="#D75902"/>
</linearGradient>
<linearGradient id="paint2_linear_654_77" x1="33.6976" y1="10.5223" x2="15.291" y2="22.6637" gradientUnits="userSpaceOnUse">
<stop stop-color="#DB5A00"/>
<stop offset="1" stop-color="#FF9145"/>
</linearGradient>
<clipPath id="clip0_654_77">
<rect width="25" height="25" fill="white" transform="translate(7 8)"/>
</clipPath>
</defs>
</svg>
