<svg width="41" height="40" viewBox="0 0 41 40" fill="none" xmlns="http://www.w3.org/2000/svg">
<rect x="0.844666" width="40" height="40" rx="5" fill="url(#paint0_linear_631_132)"/>
<path d="M29.5779 12.761C29.7337 11.7541 28.7764 10.9594 27.8812 11.3525L10.0507 19.181C9.4087 19.4629 9.45566 20.4354 10.1215 20.6474L13.7985 21.8184C14.5004 22.0419 15.2603 21.9262 15.8732 21.5029L24.1634 15.7754C24.4134 15.6026 24.6859 15.9581 24.4723 16.1782L18.5048 22.3307C17.9259 22.9276 18.0408 23.939 18.7372 24.3756L25.4184 28.5654C26.1678 29.0352 27.1318 28.5632 27.2719 27.6576L29.5779 12.761Z" fill="white"/>
<defs>
<linearGradient id="paint0_linear_631_132" x1="20.8447" y1="-2" x2="20.8447" y2="40" gradientUnits="userSpaceOnUse">
<stop stop-color="#37BBFE"/>
<stop offset="1" stop-color="#007DBB"/>
</linearGradient>
</defs>
</svg>
