<svg width="40" height="40" viewBox="0 0 40 40" fill="none" xmlns="http://www.w3.org/2000/svg">
<rect width="40" height="40" rx="5" fill="black" fill-opacity="0.2"/>
<path fill-rule="evenodd" clip-rule="evenodd" d="M21.9484 21.6623C21.4205 22.4725 20.6295 22.8766 19.5735 22.8766C18.4954 22.8766 17.6996 22.4773 17.1832 21.6776C16.6667 20.878 16.4085 19.607 16.4085 17.8675C16.4085 16.1674 16.6715 14.9127 17.1995 14.1025C17.7275 13.2933 18.5185 12.8882 19.5735 12.8882C20.6515 12.8882 21.4483 13.2875 21.9648 14.0881C22.4812 14.8878 22.7404 16.1578 22.7404 17.8973C22.7404 19.5974 22.4764 20.8521 21.9484 21.6623ZM19.2029 9.40635C18.8756 9.43995 18.5463 9.44955 18.2199 9.48411C17.7419 9.53691 17.2667 9.62811 16.803 9.75194C16.18 9.91898 15.5723 10.1503 15.0069 10.4585C13.7196 11.1583 12.7308 12.1432 12.0387 13.4133C11.3456 14.6823 11 16.1674 11 17.8675C11 20.5468 11.7622 22.6328 13.2905 24.1217C14.8197 25.6116 16.9134 26.3565 19.5735 26.3565C21.3331 26.3565 22.8556 26.0071 24.142 25.3073C25.4283 24.6065 26.4181 23.6225 27.1112 22.3525C27.8033 21.0825 28.1489 19.5974 28.1489 17.8973C28.1489 16.4064 27.9051 15.1067 27.4366 13.9854C27.14 13.2904 27.0027 12.4821 27.0027 11.5567C27.0027 10.5113 27.2158 9.59835 27.642 8.81693C27.6833 8.74302 27.7323 8.67774 27.7764 8.6067C27.811 8.56734 27.8283 8.50686 27.8283 8.45023C27.8311 8.35711 27.7812 8.30047 27.6583 8.26111C27.6468 8.26111 27.5844 8.23807 27.5729 8.23903C26.8241 8.0912 26.0312 8 25.1672 8C24.189 8 23.2079 8.10272 22.2614 8.35423C21.8265 8.46943 21.4003 8.6163 20.9875 8.79678C20.5373 8.99357 20.1283 9.247 19.6407 9.343C19.4948 9.3718 19.3489 9.39099 19.2029 9.40635Z" fill="#FAFAFA"/>
<path fill-rule="evenodd" clip-rule="evenodd" d="M19.5739 33C16.6882 33 14.3065 32.1956 12.495 30.6087C11.8048 30.003 11.7357 28.9537 12.3405 28.2635C12.9434 27.5733 13.9945 27.5023 14.6847 28.108C15.8895 29.164 17.4888 29.6766 19.5739 29.6766C21.0445 29.6766 22.3136 29.3915 23.3485 28.8289C23.6979 28.6389 24.0454 28.3893 24.4102 28.0667C25.0975 27.4581 26.1477 27.5243 26.7554 28.2107C27.3631 28.8981 27.2997 29.9483 26.6114 30.5559C26.0575 31.0465 25.5103 31.4362 24.9362 31.7482C23.4099 32.5795 21.6052 33 19.5739 33Z" fill="#E02130"/>
</svg>
