<svg width="40" height="40" viewBox="0 0 40 40" fill="none" xmlns="http://www.w3.org/2000/svg">
<g clip-path="url(#clip0_429_157)">
<rect width="40" height="40" rx="5" fill="#0088CC"/>
<path fill-rule="evenodd" clip-rule="evenodd" d="M10.9894 8.00011L28.1437 8C28.7506 8 29.357 8.08913 29.9908 8.38461C30.7505 8.73874 31.1533 9.29692 31.4356 9.7097C31.4576 9.74182 31.4781 9.77492 31.4971 9.80878C31.8289 10.3995 32 11.0373 32 11.7234C32 12.3753 31.8449 13.0855 31.4971 13.7045C31.4938 13.7106 31.4904 13.7163 31.487 13.7222L20.6492 32.3392C20.4102 32.7498 19.9703 33.0016 19.4953 33C19.0202 32.9984 18.5821 32.7433 18.3461 32.3311L7.70725 13.7538C7.70419 13.7488 7.70113 13.7438 7.69807 13.7386C7.4546 13.3374 7.07807 12.717 7.0122 11.9163C6.95169 11.18 7.11718 10.4422 7.48715 9.80255C7.85712 9.16278 8.41409 8.65135 9.08402 8.33829C9.80233 8.00262 10.5303 8.00011 10.9894 8.00011ZM18.1702 10.6596H10.9894C10.5176 10.6596 10.3365 10.6886 10.2099 10.7478C10.0348 10.8296 9.88775 10.964 9.78944 11.134C9.69113 11.3041 9.64667 11.5011 9.66284 11.6984C9.67212 11.8114 9.71822 11.9408 9.9901 12.3892C9.99578 12.3986 10.0013 12.4081 10.0068 12.4176L18.1702 26.6723V10.6596ZM20.8298 10.6596V26.7427L29.1822 12.395C29.2765 12.2237 29.3404 11.9762 29.3404 11.7234C29.3404 11.5184 29.2979 11.3403 29.2029 11.1568C29.1032 11.0134 29.0424 10.9375 28.9916 10.8855C28.948 10.841 28.9145 10.8172 28.8671 10.7951C28.6696 10.7031 28.4675 10.6596 28.1437 10.6596H20.8298Z" fill="white"/>
</g>
<defs>
<clipPath id="clip0_429_157">
<rect width="40" height="40" rx="5" fill="white"/>
</clipPath>
</defs>
</svg>
