<svg width="40" height="40" viewBox="0 0 40 40" fill="none" xmlns="http://www.w3.org/2000/svg">
<rect width="40" height="40" rx="5" fill="#50AF95"/>
<g clip-path="url(#clip0_410_115)">
<path fill-rule="evenodd" clip-rule="evenodd" d="M11.5777 9.10805L7.01934 18.7941C7.002 18.8301 6.9965 18.8708 7.00366 18.9102C7.01081 18.9497 7.03025 18.9857 7.05912 19.0132L19.3702 30.9471C19.4052 30.981 19.4517 31 19.5002 31C19.5486 31 19.5952 30.981 19.6302 30.9471L31.9413 19.0139C31.9701 18.9865 31.9896 18.9504 31.9967 18.911C32.0039 18.8716 31.9984 18.8309 31.981 18.7948L27.4227 9.1088C27.408 9.07627 27.3843 9.04871 27.3545 9.02942C27.3247 9.01013 27.2901 8.99992 27.2547 9.00001H11.7471C11.7116 8.99957 11.6767 9.00953 11.6466 9.0287C11.6166 9.04787 11.5926 9.07543 11.5777 9.10805Z" fill="white"/>
<path fill-rule="evenodd" clip-rule="evenodd" d="M21.0817 19.7887C20.9933 19.7955 20.5367 19.823 19.518 19.823C18.7079 19.823 18.1326 19.7984 17.9308 19.7887C14.7998 19.6494 12.4628 19.0981 12.4628 18.4379C12.4628 17.7778 14.7998 17.2272 17.9308 17.0856V19.2396C18.1356 19.2545 18.7219 19.2895 19.532 19.2895C20.5043 19.2895 20.9911 19.2486 21.0788 19.2404V17.0871C24.2031 17.2279 26.535 17.7793 26.535 18.4379C26.535 19.0966 24.2038 19.6479 21.0788 19.788L21.0817 19.7887ZM21.0817 16.8643V14.9368H25.4419V11.9974H13.5706V14.9368H17.9301V16.8636C14.3866 17.0282 11.7219 17.7383 11.7219 18.5892C11.7219 19.44 14.3866 20.1494 17.9301 20.3148V26.4915H21.081V20.3125C24.6163 20.1479 27.2766 19.4386 27.2766 18.5884C27.2766 17.7383 24.6185 17.029 21.081 16.8636L21.0817 16.8643Z" fill="#50AF95"/>
</g>
<defs>
<clipPath id="clip0_410_115">
<rect width="25" height="22" fill="white" transform="translate(7 9)"/>
</clipPath>
</defs>
</svg>
