<svg width="40" height="40" viewBox="0 0 40 40" fill="none" xmlns="http://www.w3.org/2000/svg">
<rect width="40" height="40" rx="5" fill="#0B0F14"/>
<g clip-path="url(#clip0_604_116)">
<path d="M16.0596 16.356C15.6538 15.6334 15.0597 15.0358 14.3415 14.6275C13.6252 14.2092 12.792 14 11.842 14C10.9052 14 10.0718 14.2095 9.34186 14.6286C8.62417 15.0368 8.03058 15.634 7.62488 16.356C7.20829 17.09 7 17.9218 7 18.8516C7 19.7814 7.20829 20.6128 7.62488 21.3461C8.03025 22.0686 8.62389 22.6663 9.34186 23.0745C10.0707 23.4959 10.9037 23.7055 11.8408 23.7032C12.7928 23.7032 13.626 23.4937 14.3403 23.0745C15.0587 22.6664 15.6528 22.0688 16.0585 21.3461C16.475 20.6128 16.6833 19.7814 16.6833 18.8516C16.6833 17.9218 16.4754 17.09 16.0596 16.356ZM13.9314 20.2577C13.7353 20.6489 13.4397 20.9808 13.0746 21.2196C12.7035 21.4445 12.2773 21.5603 11.8442 21.5541C11.4113 21.5602 10.9853 21.4444 10.6145 21.2196C10.2492 20.981 9.95358 20.649 9.7577 20.2577C9.54596 19.8402 9.44029 19.3523 9.44069 18.7941C9.44106 18.236 9.54521 17.7489 9.75312 17.3329C9.94145 16.9364 10.2388 16.6026 10.6099 16.3709C10.9812 16.145 11.4081 16.0283 11.842 16.0342C12.275 16.028 12.7012 16.1438 13.0723 16.3686C13.4434 16.6003 13.7407 16.9341 13.9291 17.3306C14.1377 17.7489 14.2419 18.2367 14.2415 18.7941C14.2411 19.3515 14.1377 19.8394 13.9314 20.2577Z" fill="#F7F7F7"/>
<path d="M31.3327 18.5666C30.9266 17.8441 30.3327 17.2466 29.6145 16.8381C28.8984 16.419 28.0652 16.2095 27.115 16.2095C26.1779 16.2095 25.3449 16.419 24.6162 16.8381C23.8972 17.2462 23.3026 17.8438 22.8963 18.5666C22.4793 19.2998 22.271 20.1313 22.2714 21.0611C22.2718 21.9908 22.4801 22.8225 22.8963 23.5561C23.3021 24.2787 23.8961 24.8763 24.6144 25.2846C25.3433 25.7037 26.1761 25.9132 27.1134 25.9132C28.0654 25.9132 28.8985 25.7037 29.6129 25.2846C30.3317 24.8764 30.9263 24.2788 31.3327 23.5561C31.7489 22.8229 31.957 21.9912 31.957 21.0611C31.957 20.1309 31.7489 19.2994 31.3327 18.5666ZM29.2044 22.4678C29.0082 22.8587 28.7126 23.1904 28.3477 23.4291C27.9745 23.6485 27.5498 23.7641 27.1177 23.7641C26.6853 23.7641 26.2608 23.6485 25.8876 23.4291C25.5226 23.1905 25.227 22.8588 25.0309 22.4678C24.8226 22.0494 24.7183 21.5614 24.7183 21.0036C24.7183 20.4458 24.8226 19.958 25.0309 19.54C25.2193 19.1437 25.5167 18.8099 25.8876 18.5781C26.261 18.3591 26.6855 18.2436 27.1177 18.2436C27.5498 18.2436 27.9744 18.3591 28.3477 18.5781C28.7185 18.8101 29.0157 19.1438 29.2044 19.54C29.4124 19.9584 29.5165 20.4462 29.5168 21.0036C29.5173 21.561 29.4126 22.0491 29.2028 22.4678H29.2044Z" fill="#F7F7F7"/>
<path d="M16.7216 25.7167L19.6375 14.192H22.2735L19.3576 25.7167H16.7216Z" fill="#F7F7F7"/>
</g>
<defs>
<clipPath id="clip0_604_116">
<rect width="25" height="12" fill="white" transform="translate(7 14)"/>
</clipPath>
</defs>
</svg>
