<svg width="52" height="40" viewBox="0 0 52 40" fill="none" xmlns="http://www.w3.org/2000/svg">
<mask id="mask0_1_28901" style="mask-type:alpha" maskUnits="userSpaceOnUse" x="2" y="2" width="48" height="36">
<path d="M2.56934 11.1356C3.16681 6.41247 7.0415 3.00193 11.7861 2.60887C15.6412 2.28949 20.6196 2 26 2C31.3804 2 36.3588 2.28949 40.2139 2.60887C44.9585 3.00193 48.8332 6.41247 49.4307 11.1356C49.752 13.6759 50 16.704 50 20C50 23.296 49.752 26.3241 49.4307 28.8644C48.8332 33.5875 44.9585 36.9981 40.2139 37.3911C36.3588 37.7105 31.3804 38 26 38C20.6196 38 15.6412 37.7105 11.7861 37.3911C7.0415 36.9981 3.16681 33.5875 2.56934 28.8644C2.248 26.3241 2 23.296 2 20C2 16.704 2.248 13.6759 2.56934 11.1356Z" fill="#00D0BF"/>
</mask>
<g mask="url(#mask0_1_28901)">
<rect x="2" y="2" width="48" height="36" fill="#2C2929"/>
<path d="M36 16L26 14.6364L26 17.3636L36 16Z" fill="#FCD95E"/>
<path d="M16 16L26 17.3636L26 14.6364L16 16Z" fill="#FCD95E"/>
<path d="M26 6L24.6364 16L27.3636 16L26 6Z" fill="#FCD95E"/>
<path d="M26 26L27.3636 16L24.6364 16L26 26Z" fill="#FCD95E"/>
<path d="M29.4202 6.60305L24.7186 15.5336L27.2814 16.4664L29.4202 6.60305Z" fill="#FCD95E"/>
<path d="M22.5798 25.397L27.2814 16.4664L24.7186 15.5336L22.5798 25.397Z" fill="#FCD95E"/>
<path d="M33.071 8.92896L25.0357 15.0358L26.9642 16.9643L33.071 8.92896Z" fill="#FCD95E"/>
<path d="M18.929 23.0711L26.9643 16.9643L25.0358 15.0358L18.929 23.0711Z" fill="#FCD95E"/>
<path d="M35.0631 11.7738L25.4237 14.7641L26.5763 17.2359L35.0631 11.7738Z" fill="#FCD95E"/>
<path d="M16.937 20.2262L26.5764 17.2359L25.4238 14.7642L16.937 20.2262Z" fill="#FCD95E"/>
<path d="M16.8367 11.9958L25.454 17.2495L26.546 14.7504L16.8367 11.9958Z" fill="#FCD95E"/>
<path d="M35.1633 20.0042L26.546 14.7505L25.454 17.2496L35.1633 20.0042Z" fill="#FCD95E"/>
<path d="M19.3874 8.49837L24.9771 16.9017L27.023 15.0983L19.3874 8.49837Z" fill="#FCD95E"/>
<path d="M32.6126 23.5016L27.0229 15.0983L24.977 16.9017L32.6126 23.5016Z" fill="#FCD95E"/>
<path d="M22.3519 6.68918L24.7304 16.4975L27.2697 15.5025L22.3519 6.68918Z" fill="#FCD95E"/>
<path d="M29.6481 25.3108L27.2696 15.5025L24.7303 16.4975L29.6481 25.3108Z" fill="#FCD95E"/>
<rect x="8" y="22" width="36" height="16" fill="white"/>
<rect x="8" y="16" width="36" height="6" fill="#75AAFA"/>
<path d="M26 38L1 -2V39.5H51V-2L26 38Z" fill="#EE5757"/>
</g>
</svg>
