<svg width="52" height="40" viewBox="0 0 52 40" fill="none" xmlns="http://www.w3.org/2000/svg">
<mask id="mask0_1_34310" style="mask-type:alpha" maskUnits="userSpaceOnUse" x="2" y="2" width="48" height="36">
<path d="M2.56934 11.1356C3.16681 6.41247 7.0415 3.00193 11.7861 2.60887C15.6412 2.28949 20.6196 2 26 2C31.3804 2 36.3588 2.28949 40.2139 2.60887C44.9585 3.00193 48.8332 6.41247 49.4307 11.1356C49.752 13.6759 50 16.704 50 20C50 23.296 49.752 26.3241 49.4307 28.8644C48.8332 33.5875 44.9585 36.9981 40.2139 37.3911C36.3588 37.7105 31.3804 38 26 38C20.6196 38 15.6412 37.7105 11.7861 37.3911C7.0415 36.9981 3.16681 33.5875 2.56934 28.8644C2.248 26.3241 2 23.296 2 20C2 16.704 2.248 13.6759 2.56934 11.1356Z" fill="#00D0BF"/>
</mask>
<g mask="url(#mask0_1_34310)">
<path d="M2 2H50V38H2V2Z" fill="#59C785"/>
<path d="M26 18L2.5 36L26 48L49.5 36L26 18Z" fill="white"/>
<path d="M26 22L49.5 4L26 -8L2.5 4L26 22Z" fill="white"/>
<path d="M26 22L6 37L26 52L46 37L26 22Z" fill="#EE5757"/>
<path d="M26 -12L6 3L26 18L46 3L26 -12Z" fill="#EE5757"/>
</g>
<circle cx="26" cy="20" r="9" fill="white"/>
<path d="M26.6172 15.3076L26.6533 15.3691H26.7246L27.9492 15.374L27.3418 16.4375L27.3057 16.5L27.3418 16.5625L27.9492 17.625L26.7246 17.6309H26.6533L26.6172 17.6924L26 18.751L25.3828 17.6924L25.3467 17.6309H25.2754L24.0498 17.625L24.6582 16.5625L24.6943 16.5L24.6582 16.4375L24.0498 15.374L25.2754 15.3691H25.3467L25.3828 15.3076L26 14.248L26.6172 15.3076Z" fill="#EE5757" stroke="#59C785" stroke-width="0.25"/>
<path d="M30.1172 21.8076L30.1533 21.8691H30.2246L31.4492 21.874L30.8418 22.9375L30.8057 23L30.8418 23.0625L31.4492 24.125L30.2246 24.1309H30.1533L30.1172 24.1924L29.5 25.251L28.8828 24.1924L28.8467 24.1309H28.7754L27.5498 24.125L28.1582 23.0625L28.1943 23L28.1582 22.9375L27.5498 21.874L28.7754 21.8691H28.8467L28.8828 21.8076L29.5 20.748L30.1172 21.8076Z" fill="#EE5757" stroke="#59C785" stroke-width="0.25"/>
<path d="M23.1172 21.8076L23.1533 21.8691H23.2246L24.4492 21.874L23.8418 22.9375L23.8057 23L23.8418 23.0625L24.4492 24.125L23.2246 24.1309H23.1533L23.1172 24.1924L22.5 25.251L21.8828 24.1924L21.8467 24.1309H21.7754L20.5498 24.125L21.1582 23.0625L21.1943 23L21.1582 22.9375L20.5498 21.874L21.7754 21.8691H21.8467L21.8828 21.8076L22.5 20.748L23.1172 21.8076Z" fill="#EE5757" stroke="#59C785" stroke-width="0.25"/>
</svg>
