<svg width="52" height="40" viewBox="0 0 52 40" fill="none" xmlns="http://www.w3.org/2000/svg">
<mask id="mask0_1_32014" style="mask-type:alpha" maskUnits="userSpaceOnUse" x="2" y="2" width="48" height="36">
<path d="M2.56934 11.1356C3.16681 6.41247 7.0415 3.00193 11.7861 2.60887C15.6412 2.28949 20.6196 2 26 2C31.3804 2 36.3588 2.28949 40.2139 2.60887C44.9585 3.00193 48.8332 6.41247 49.4307 11.1356C49.752 13.6759 50 16.704 50 20C50 23.296 49.752 26.3241 49.4307 28.8644C48.8332 33.5875 44.9585 36.9981 40.2139 37.3911C36.3588 37.7105 31.3804 38 26 38C20.6196 38 15.6412 37.7105 11.7861 37.3911C7.0415 36.9981 3.16681 33.5875 2.56934 28.8644C2.248 26.3241 2 23.296 2 20C2 16.704 2.248 13.6759 2.56934 11.1356Z" fill="#00D0BF"/>
</mask>
<g mask="url(#mask0_1_32014)">
<rect x="2" y="2" width="16" height="36" fill="#2C2929"/>
<rect x="18" y="2" width="16" height="36" fill="#FCD95E"/>
<rect x="34" y="2" width="16" height="36" fill="#EE5757"/>
</g>
</svg>
