<svg width="52" height="40" viewBox="0 0 52 40" fill="none" xmlns="http://www.w3.org/2000/svg">
<mask id="mask0_1_34344" style="mask-type:alpha" maskUnits="userSpaceOnUse" x="2" y="2" width="48" height="36">
<path d="M2.56934 11.1356C3.16681 6.41247 7.0415 3.00193 11.7861 2.60887C15.6412 2.28949 20.6196 2 26 2C31.3804 2 36.3588 2.28949 40.2139 2.60887C44.9585 3.00193 48.8332 6.41247 49.4307 11.1356C49.752 13.6759 50 16.704 50 20C50 23.296 49.752 26.3241 49.4307 28.8644C48.8332 33.5875 44.9585 36.9981 40.2139 37.3911C36.3588 37.7105 31.3804 38 26 38C20.6196 38 15.6412 37.7105 11.7861 37.3911C7.0415 36.9981 3.16681 33.5875 2.56934 28.8644C2.248 26.3241 2 23.296 2 20C2 16.704 2.248 13.6759 2.56934 11.1356Z" fill="#00D0BF"/>
</mask>
<g mask="url(#mask0_1_34344)">
<rect x="2" y="29" width="48" height="9" fill="#3F6FEB"/>
<rect x="2" y="11" width="48" height="9" fill="white"/>
<rect x="2" y="20" width="48" height="9" fill="#EE5757"/>
<rect x="2" y="2" width="48" height="9" fill="#FCD95E"/>
<path d="M2 0L22 20L2 40V0Z" fill="#59C785"/>
</g>
<path fill-rule="evenodd" clip-rule="evenodd" d="M11.5 13.795C8.57792 14.3493 6.36841 16.9166 6.36841 20C6.36841 23.0834 8.57792 25.6506 11.5 26.2049C11.1164 26.2777 10.7205 26.3158 10.3158 26.3158C6.82768 26.3158 4 23.4881 4 20C4 16.5119 6.82768 13.6842 10.3158 13.6842C10.7205 13.6842 11.1164 13.7223 11.5 13.795Z" fill="white"/>
<path d="M12.5 14L12.8368 15.0365H13.9266L13.0449 15.6771L13.3817 16.7135L12.5 16.0729L11.6183 16.7135L11.9551 15.6771L11.0734 15.0365H12.1632L12.5 14Z" fill="white"/>
<path d="M12.5 17L12.8368 18.0365H13.9266L13.0449 18.6771L13.3817 19.7135L12.5 19.0729L11.6183 19.7135L11.9551 18.6771L11.0734 18.0365H12.1632L12.5 17Z" fill="white"/>
<path d="M12.5 20L12.8368 21.0365H13.9266L13.0449 21.6771L13.3817 22.7135L12.5 22.0729L11.6183 22.7135L11.9551 21.6771L11.0734 21.0365H12.1632L12.5 20Z" fill="white"/>
<path d="M12.5 23L12.8368 24.0365H13.9266L13.0449 24.6771L13.3817 25.7135L12.5 25.0729L11.6183 25.7135L11.9551 24.6771L11.0734 24.0365H12.1632L12.5 23Z" fill="white"/>
</svg>
