<svg width="52" height="40" viewBox="0 0 52 40" fill="none" xmlns="http://www.w3.org/2000/svg">
<mask id="mask0_1_35723" style="mask-type:alpha" maskUnits="userSpaceOnUse" x="2" y="2" width="48" height="36">
<path d="M2.56934 11.1356C3.16681 6.41247 7.0415 3.00193 11.7861 2.60887C15.6412 2.28949 20.6196 2 26 2C31.3804 2 36.3588 2.28949 40.2139 2.60887C44.9585 3.00193 48.8332 6.41247 49.4307 11.1356C49.752 13.6759 50 16.704 50 20C50 23.296 49.752 26.3241 49.4307 28.8644C48.8332 33.5875 44.9585 36.9981 40.2139 37.3911C36.3588 37.7105 31.3804 38 26 38C20.6196 38 15.6412 37.7105 11.7861 37.3911C7.0415 36.9981 3.16681 33.5875 2.56934 28.8644C2.248 26.3241 2 23.296 2 20C2 16.704 2.248 13.6759 2.56934 11.1356Z" fill="#00D0BF"/>
</mask>
<g mask="url(#mask0_1_35723)">
<rect x="2" y="2" width="48" height="36" fill="#2E50A6"/>
<path d="M15.5 13L16.2858 15.4184H18.8287L16.7714 16.9131L17.5572 19.3316L15.5 17.8369L13.4428 19.3316L14.2286 16.9131L12.1713 15.4184H14.7142L15.5 13Z" fill="white"/>
<path d="M10 7L10.6735 9.07295H12.8532L11.0898 10.3541L11.7634 12.4271L10 11.1459L8.23664 12.4271L8.91019 10.3541L7.14683 9.07295H9.32646L10 7Z" fill="white"/>
<rect x="2" y="24" width="48" height="4" fill="#FCD95E"/>
</g>
</svg>
