<svg width="52" height="40" viewBox="0 0 52 40" fill="none" xmlns="http://www.w3.org/2000/svg">
<mask id="mask0_1_35847" style="mask-type:alpha" maskUnits="userSpaceOnUse" x="2" y="2" width="48" height="36">
<path d="M2.56934 11.1356C3.16681 6.41247 7.0415 3.00193 11.7861 2.60887C15.6412 2.28949 20.6196 2 26 2C31.3804 2 36.3588 2.28949 40.2139 2.60887C44.9585 3.00193 48.8332 6.41247 49.4307 11.1356C49.752 13.6759 50 16.704 50 20C50 23.296 49.752 26.3241 49.4307 28.8644C48.8332 33.5875 44.9585 36.9981 40.2139 37.3911C36.3588 37.7105 31.3804 38 26 38C20.6196 38 15.6412 37.7105 11.7861 37.3911C7.0415 36.9981 3.16681 33.5875 2.56934 28.8644C2.248 26.3241 2 23.296 2 20C2 16.704 2.248 13.6759 2.56934 11.1356Z" fill="#00D0BF"/>
</mask>
<g mask="url(#mask0_1_35847)">
<rect x="2" y="-4" width="48" height="49" fill="#75AAFA"/>
<path d="M26 8L26.6735 10.0729H28.8532L27.0898 11.3541L27.7634 13.4271L26 12.1459L24.2366 13.4271L24.9102 11.3541L23.1468 10.0729H25.3265L26 8Z" fill="white"/>
<path d="M26 32L25.3265 29.9271L23.1468 29.9271L24.9102 28.6459L24.2366 26.5729L26 27.8541L27.7634 26.5729L27.0898 28.6459L28.8532 29.9271L26.6735 29.9271L26 32Z" fill="white"/>
<path d="M38 20L35.9271 20.6735L35.9271 22.8532L34.6459 21.0898L32.5729 21.7634L33.8541 20L32.5729 18.2366L34.6459 18.9102L35.9271 17.1468L35.9271 19.3265L38 20Z" fill="white"/>
<path d="M14 20L16.0729 19.3265L16.0729 17.1468L17.3541 18.9102L19.4271 18.2366L18.1459 20L19.4271 21.7634L17.3541 21.0898L16.0729 22.8532L16.0729 20.6735L14 20Z" fill="white"/>
</g>
</svg>
