<svg width="52" height="40" viewBox="0 0 52 40" fill="none" xmlns="http://www.w3.org/2000/svg">
<mask id="mask0_1_32055" style="mask-type:alpha" maskUnits="userSpaceOnUse" x="2" y="2" width="48" height="36">
<path d="M2.56934 11.1356C3.16681 6.41247 7.0415 3.00193 11.7861 2.60887C15.6412 2.28949 20.6196 2 26 2C31.3804 2 36.3588 2.28949 40.2139 2.60887C44.9585 3.00193 48.8332 6.41247 49.4307 11.1356C49.752 13.6759 50 16.704 50 20C50 23.296 49.752 26.3241 49.4307 28.8644C48.8332 33.5875 44.9585 36.9981 40.2139 37.3911C36.3588 37.7105 31.3804 38 26 38C20.6196 38 15.6412 37.7105 11.7861 37.3911C7.0415 36.9981 3.16681 33.5875 2.56934 28.8644C2.248 26.3241 2 23.296 2 20C2 16.704 2.248 13.6759 2.56934 11.1356Z" fill="#00D0BF"/>
</mask>
<g mask="url(#mask0_1_32055)">
<rect x="2" y="-4" width="48" height="49" fill="white"/>
<path d="M12.5455 5L14 5.5L15.4546 5L15 9L15.4546 13L14 12.5L12.5455 13L13 9L12.5455 5Z" fill="#EE5757"/>
<path d="M12.5455 27L14 27.5L15.4546 27L15 31L15.4546 35L14 34.5L12.5455 35L13 31L12.5455 27Z" fill="#EE5757"/>
<path d="M36.5455 5L38 5.5L39.4546 5L39 9L39.4546 13L38 12.5L36.5455 13L37 9L36.5455 5Z" fill="#EE5757"/>
<path d="M36.5455 27L38 27.5L39.4546 27L39 31L39.4546 35L38 34.5L36.5455 35L37 31L36.5455 27Z" fill="#EE5757"/>
<path d="M18 7.54544L17.5 8.99999L18 10.4545L14 10L10 10.4545L10.5 8.99999L10 7.54544L14 8L18 7.54544Z" fill="#EE5757"/>
<path d="M18 29.5454L17.5 31L18 32.4545L14 32L10 32.4545L10.5 31L10 29.5454L14 30L18 29.5454Z" fill="#EE5757"/>
<path d="M42 7.54544L41.5 8.99999L42 10.4545L38 10L34 10.4545L34.5 8.99999L34 7.54544L38 8L42 7.54544Z" fill="#EE5757"/>
<path d="M42 29.5454L41.5 31L42 32.4545L38 32L34 32.4545L34.5 31L34 29.5454L38 30L42 29.5454Z" fill="#EE5757"/>
<path d="M26 1V39" stroke="#EE5757" stroke-width="8"/>
<path d="M51 20L1 20" stroke="#EE5757" stroke-width="8"/>
</g>
</svg>
