<svg width="52" height="40" viewBox="0 0 52 40" fill="none" xmlns="http://www.w3.org/2000/svg">
<mask id="mask0_1_32071" style="mask-type:alpha" maskUnits="userSpaceOnUse" x="2" y="2" width="48" height="36">
<path d="M2.56934 11.1356C3.16681 6.41247 7.0415 3.00193 11.7861 2.60887C15.6412 2.28949 20.6196 2 26 2C31.3804 2 36.3588 2.28949 40.2139 2.60887C44.9585 3.00193 48.8332 6.41247 49.4307 11.1356C49.752 13.6759 50 16.704 50 20C50 23.296 49.752 26.3241 49.4307 28.8644C48.8332 33.5875 44.9585 36.9981 40.2139 37.3911C36.3588 37.7105 31.3804 38 26 38C20.6196 38 15.6412 37.7105 11.7861 37.3911C7.0415 36.9981 3.16681 33.5875 2.56934 28.8644C2.248 26.3241 2 23.296 2 20C2 16.704 2.248 13.6759 2.56934 11.1356Z" fill="#00D0BF"/>
</mask>
<g mask="url(#mask0_1_32071)">
<rect x="2" y="26" width="48" height="12" fill="#2E50A6"/>
<rect x="2" y="13" width="48" height="14" fill="white"/>
<path d="M26 18L26.449 19.382H27.9021L26.7265 20.2361L27.1756 21.618L26 20.7639L24.8244 21.618L25.2735 20.2361L24.0979 19.382H25.551L26 18Z" fill="#2E50A6"/>
<path d="M17 14L17.449 15.382H18.9021L17.7265 16.2361L18.1756 17.618L17 16.7639L15.8244 17.618L16.2735 16.2361L15.0979 15.382H16.551L17 14Z" fill="#2E50A6"/>
<path d="M35 14L35.449 15.382H36.9021L35.7265 16.2361L36.1756 17.618L35 16.7639L33.8244 17.618L34.2735 16.2361L33.0979 15.382H34.551L35 14Z" fill="#2E50A6"/>
<path d="M17 22L17.449 23.382H18.9021L17.7265 24.2361L18.1756 25.618L17 24.7639L15.8244 25.618L16.2735 24.2361L15.0979 23.382H16.551L17 22Z" fill="#2E50A6"/>
<path d="M35 22L35.449 23.382H36.9021L35.7265 24.2361L36.1756 25.618L35 24.7639L33.8244 25.618L34.2735 24.2361L33.0979 23.382H34.551L35 22Z" fill="#2E50A6"/>
<rect x="2" y="2" width="48" height="11" fill="#2E50A6"/>
</g>
</svg>
