<svg width="52" height="40" viewBox="0 0 52 40" fill="none" xmlns="http://www.w3.org/2000/svg">
<mask id="mask0_1_32450" style="mask-type:alpha" maskUnits="userSpaceOnUse" x="2" y="2" width="48" height="36">
<path d="M2.56934 11.1356C3.16681 6.41247 7.0415 3.00193 11.7861 2.60887C15.6412 2.28949 20.6196 2 26 2C31.3804 2 36.3588 2.28949 40.2139 2.60887C44.9585 3.00193 48.8332 6.41247 49.4307 11.1356C49.752 13.6759 50 16.704 50 20C50 23.296 49.752 26.3241 49.4307 28.8644C48.8332 33.5875 44.9585 36.9981 40.2139 37.3911C36.3588 37.7105 31.3804 38 26 38C20.6196 38 15.6412 37.7105 11.7861 37.3911C7.0415 36.9981 3.16681 33.5875 2.56934 28.8644C2.248 26.3241 2 23.296 2 20C2 16.704 2.248 13.6759 2.56934 11.1356Z" fill="#00D0BF"/>
</mask>
<g mask="url(#mask0_1_32450)">
<rect x="2" y="-4" width="48" height="49" fill="#EE5757"/>
<path d="M2 -5H47L10.5 44H2V-5Z" fill="#59C785"/>
<path d="M37 0L-2 40H15L54 0H37Z" fill="#2C2929" stroke="#FCD95E" stroke-width="2"/>
<path d="M29.8284 10.8284L32.4178 12.1478L34.4728 10.0928L34.0182 12.9632L36.6076 14.2826L33.7372 14.7372L33.2826 17.6076L31.9632 15.0182L29.0928 15.4728L31.1478 13.4178L29.8284 10.8284Z" fill="white"/>
<path d="M16.8284 23.8284L19.4178 25.1478L21.4728 23.0928L21.0182 25.9632L23.6076 27.2826L20.7372 27.7372L20.2826 30.6076L18.9632 28.0182L16.0928 28.4728L18.1478 26.4178L16.8284 23.8284Z" fill="white"/>
</g>
</svg>
