<svg width="52" height="40" viewBox="0 0 52 40" fill="none" xmlns="http://www.w3.org/2000/svg">
<mask id="mask0_1_34448" style="mask-type:alpha" maskUnits="userSpaceOnUse" x="2" y="2" width="48" height="36">
<path d="M2.56934 11.1356C3.16681 6.41247 7.0415 3.00193 11.7861 2.60887C15.6412 2.28949 20.6196 2 26 2C31.3804 2 36.3588 2.28949 40.2139 2.60887C44.9585 3.00193 48.8332 6.41247 49.4307 11.1356C49.752 13.6759 50 16.704 50 20C50 23.296 49.752 26.3241 49.4307 28.8644C48.8332 33.5875 44.9585 36.9981 40.2139 37.3911C36.3588 37.7105 31.3804 38 26 38C20.6196 38 15.6412 37.7105 11.7861 37.3911C7.0415 36.9981 3.16681 33.5875 2.56934 28.8644C2.248 26.3241 2 23.296 2 20C2 16.704 2.248 13.6759 2.56934 11.1356Z" fill="#00D0BF"/>
</mask>
<g mask="url(#mask0_1_34448)">
<rect x="2" y="2" width="48" height="36" fill="#FCD95E"/>
<mask id="mask1_1_34448" style="mask-type:alpha" maskUnits="userSpaceOnUse" x="2" y="2" width="24" height="18">
<rect x="2" y="2" width="24" height="18" fill="#C4C4C4"/>
</mask>
<g mask="url(#mask1_1_34448)">
<rect x="2" y="2" width="24" height="18" fill="#2E50A6"/>
<path d="M2 2L26 20L2 2ZM26 2L2 20L26 2Z" fill="black"/>
<path d="M26 2L2 20M2 2L26 20L2 2Z" stroke="white" stroke-width="2.4"/>
<path d="M2 2L26 20L2 2ZM26 2L2 20L26 2Z" fill="black"/>
<path d="M26 2L2 20M2 2L26 20L2 2Z" stroke="#EE5757" stroke-width="1.6"/>
<path d="M14 2V23V2ZM2 11H30H2Z" fill="black"/>
<path d="M2 11H30M14 2V23V2Z" stroke="white" stroke-width="4"/>
<path d="M14 2V23V2ZM2 11H30H2Z" fill="black"/>
<path d="M2 11H30M14 2V23V2Z" stroke="#EE5757" stroke-width="2.4"/>
<path d="M13.9999 14C15.6568 14 17 12.6569 17 11C17 9.34315 15.6568 8 13.9999 8C12.3431 8 10.9999 9.34315 10.9999 11C10.9999 12.6569 12.3431 14 13.9999 14Z" fill="#2E50A6"/>
<path d="M14 8L15.7633 13.4271L11.1468 10.073H16.8531L12.2366 13.4271" fill="#FCD95E"/>
<path d="M8.1468 10L8.79664 12L7.09534 10.7639H9.19826L7.49696 12" fill="#FCD95E"/>
<path d="M20.0515 10L20.7013 12L19 10.7639H21.1029L19.4016 12" fill="#FCD95E"/>
<path d="M14.0515 5L14.7013 7L13 5.76393H15.1029L13.4016 7" fill="#FCD95E"/>
<path d="M14.0515 15L14.7013 17L13 15.7639H15.1029L13.4016 17" fill="#FCD95E"/>
</g>
</g>
</svg>
