<svg width="52" height="40" viewBox="0 0 52 40" fill="none" xmlns="http://www.w3.org/2000/svg">
<mask id="mask0_1_40029" style="mask-type:alpha" maskUnits="userSpaceOnUse" x="2" y="2" width="48" height="36">
<path d="M2.56934 11.1356C3.16681 6.41245 7.0415 3.00192 11.7861 2.60886C15.6412 2.28947 20.6196 1.99998 26 1.99998C31.3804 1.99998 36.3588 2.28947 40.2139 2.60886C44.9585 3.00192 48.8332 6.41245 49.4307 11.1356C49.752 13.6759 50 16.704 50 20C50 23.296 49.752 26.3241 49.4307 28.8643C48.8332 33.5875 44.9585 36.9981 40.2139 37.3911C36.3588 37.7105 31.3804 38 26 38C20.6196 38 15.6412 37.7105 11.7861 37.3911C7.0415 36.9981 3.16681 33.5875 2.56934 28.8643C2.248 26.3241 2 23.296 2 20C2 16.704 2.248 13.6759 2.56934 11.1356Z" fill="#00D0BF"/>
</mask>
<g mask="url(#mask0_1_40029)">
<rect x="2" y="-4.00002" width="48" height="49" fill="white"/>
<path d="M3.25586 2.55838L28.8848 18.6072L30.3047 19.4959H11.666L28.9697 36.7986L29.791 37.6199H2.51855V2.09744L3.25586 2.55838Z" fill="#EE5757" stroke="#2E50A6" stroke-width="0.962447"/>
<path d="M9.40718 18.1005C12.2264 18.1005 14.5116 15.8153 14.5116 12.9961C14.0631 14.1366 13.2515 15.0806 12.2178 15.6957L11.7821 15.371L12.6364 14.7303L11.6027 14.4655L12.1495 13.5386L11.0816 13.6923L11.2397 12.633L10.3127 13.1883L10.0479 12.1418L9.40718 12.9961L8.76646 12.1418L8.49735 13.184L7.57471 12.6373L7.73275 13.7052L6.66488 13.5471L7.22017 14.474L6.17793 14.7389L7.03223 15.3796L6.60508 15.7085C5.59273 15.1105 4.76833 14.1878 4.30701 13.0089C4.30701 15.8281 6.59226 18.1133 9.41146 18.1133L9.40718 18.1005Z" fill="white"/>
<path d="M6.94683 25.6184L4.65731 25.3365L6.04555 27.1732L3.92261 28.0788L6.04555 28.9758L4.65731 30.8126L6.94683 30.5306L6.66491 32.8244L8.50166 31.4362L9.40722 33.5634L10.3042 31.4362L12.1495 32.8287L11.8676 30.5392L14.1571 30.8254L12.7689 28.9886L14.8918 28.0916L12.7689 27.186L14.1571 25.3493L11.8676 25.6269L12.1495 23.3374L10.3128 24.7257L9.40722 22.5942L8.5102 24.7171L6.66491 23.3289L6.94683 25.6184Z" fill="white"/>
</g>
</svg>
