<svg width="52" height="40" viewBox="0 0 52 40" fill="none" xmlns="http://www.w3.org/2000/svg">
<mask id="mask0_1_40492" style="mask-type:alpha" maskUnits="userSpaceOnUse" x="2" y="2" width="48" height="36">
<path d="M2.56934 11.1356C3.16681 6.41247 7.0415 3.00193 11.7861 2.60887C15.6412 2.28949 20.6196 2 26 2C31.3804 2 36.3588 2.28949 40.2139 2.60887C44.9585 3.00193 48.8332 6.41247 49.4307 11.1356C49.752 13.6759 50 16.704 50 20C50 23.296 49.752 26.3241 49.4307 28.8644C48.8332 33.5875 44.9585 36.9981 40.2139 37.3911C36.3588 37.7105 31.3804 38 26 38C20.6196 38 15.6412 37.7105 11.7861 37.3911C7.0415 36.9981 3.16681 33.5875 2.56934 28.8644C2.248 26.3241 2 23.296 2 20C2 16.704 2.248 13.6759 2.56934 11.1356Z" fill="#00D0BF"/>
</mask>
<g mask="url(#mask0_1_40492)">
<rect x="2" y="2" width="48" height="36" fill="#2E50A6"/>
<mask id="mask1_1_40492" style="mask-type:alpha" maskUnits="userSpaceOnUse" x="2" y="2" width="24" height="18">
<rect x="2" y="2" width="24" height="18" fill="#C4C4C4"/>
</mask>
<g mask="url(#mask1_1_40492)">
<path d="M2 2L26 20L2 2ZM26 2L2 20L26 2Z" fill="black"/>
<path d="M26 2L2 20M2 2L26 20L2 2Z" stroke="white" stroke-width="2.4"/>
<path d="M2 2L26 20L2 2ZM26 2L2 20L26 2Z" fill="black"/>
<path d="M26 2L2 20M2 2L26 20L2 2Z" stroke="#EE5757" stroke-width="1.6"/>
<path d="M14 2V23V2ZM2 11H30H2Z" fill="black"/>
<path d="M2 11H30M14 2V23V2Z" stroke="white" stroke-width="4"/>
<path d="M14 2V23V2ZM2 11H30H2Z" fill="black"/>
<path d="M2 11H30M14 2V23V2Z" stroke="#EE5757" stroke-width="2.4"/>
</g>
<path d="M38.308 12.166L38.2845 12.2236L38.223 12.2285L37.2523 12.2988L37.9955 12.9277L38.0433 12.9677L38.0287 13.0283L37.7972 13.9726L38.6234 13.4599L38.6761 13.4277L38.7289 13.4599L39.556 13.9726L39.3236 13.0283L39.309 12.9677L39.3558 12.9277L40.101 12.2988L39.1293 12.2285L39.0668 12.2236L39.0433 12.166L38.6761 11.2646L38.308 12.166Z" fill="#EE5757" stroke="white" stroke-width="0.2"/>
<path d="M32.308 19.166L32.2845 19.2236L32.223 19.2285L31.2523 19.2988L31.9955 19.9277L32.0433 19.9678L32.0287 20.0283L31.7972 20.9727L32.6234 20.46L32.6761 20.4277L32.7289 20.46L33.556 20.9727L33.3236 20.0283L33.309 19.9678L33.3558 19.9277L34.101 19.2988L33.1293 19.2285L33.0668 19.2236L33.0433 19.166L32.6761 18.2647L32.308 19.166Z" fill="#EE5757" stroke="white" stroke-width="0.2"/>
<path d="M41.308 30.166L41.2845 30.2236L41.223 30.2285L40.2523 30.2988L40.9955 30.9277L41.0433 30.9677L41.0287 31.0283L40.7972 31.9726L41.6234 31.4599L41.6761 31.4277L41.7289 31.4599L42.556 31.9726L42.3236 31.0283L42.309 30.9677L42.3558 30.9277L43.101 30.2988L42.1293 30.2285L42.0668 30.2236L42.0433 30.166L41.6761 29.2646L41.308 30.166Z" fill="#EE5757" stroke="white" stroke-width="0.2"/>
<path d="M43.308 18.1661L43.2845 18.2237L43.223 18.2286L42.2523 18.2989L42.9955 18.9278L43.0433 18.9678L43.0287 19.0284L42.7972 19.9727L43.6234 19.46L43.6761 19.4278L43.7289 19.46L44.556 19.9727L44.3236 19.0284L44.309 18.9678L44.3558 18.9278L45.101 18.2989L44.1293 18.2286L44.0668 18.2237L44.0433 18.1661L43.6761 17.2647L43.308 18.1661Z" fill="#EE5757" stroke="white" stroke-width="0.2"/>
</g>
</svg>
