<svg width="52" height="40" viewBox="0 0 52 40" fill="none" xmlns="http://www.w3.org/2000/svg">
<mask id="mask0_1_31243" style="mask-type:alpha" maskUnits="userSpaceOnUse" x="2" y="2" width="48" height="36">
<path d="M2.56934 11.1356C3.16681 6.41247 7.0415 3.00193 11.7861 2.60887C15.6412 2.28949 20.6196 2 26 2C31.3804 2 36.3588 2.28949 40.2139 2.60887C44.9585 3.00193 48.8332 6.41247 49.4307 11.1356C49.752 13.6759 50 16.704 50 20C50 23.296 49.752 26.3241 49.4307 28.8644C48.8332 33.5875 44.9585 36.9981 40.2139 37.3911C36.3588 37.7105 31.3804 38 26 38C20.6196 38 15.6412 37.7105 11.7861 37.3911C7.0415 36.9981 3.16681 33.5875 2.56934 28.8644C2.248 26.3241 2 23.296 2 20C2 16.704 2.248 13.6759 2.56934 11.1356Z" fill="#00D0BF"/>
</mask>
<g mask="url(#mask0_1_31243)">
<rect x="2" y="-4" width="48" height="49" fill="#1C6864"/>
<path d="M2 -5H58L-3.5 44H2V-5Z" fill="#3F6FEB"/>
<path d="M9.5 7L10.0613 8.72746H11.8776L10.4082 9.79508L10.9695 11.5225L9.5 10.4549L8.03054 11.5225L8.59182 9.79508L7.12236 8.72746H8.93871L9.5 7Z" fill="white"/>
<path d="M18.5 7L19.0613 8.72746H20.8776L19.4082 9.79508L19.9695 11.5225L18.5 10.4549L17.0305 11.5225L17.5918 9.79508L16.1224 8.72746H17.9387L18.5 7Z" fill="white"/>
<path d="M14 11L14.5613 12.7275H16.3776L14.9082 13.7951L15.4695 15.5225L14 14.4549L12.5305 15.5225L13.0918 13.7951L11.6224 12.7275H13.4387L14 11Z" fill="white"/>
<path d="M9.5 15L10.0613 16.7275H11.8776L10.4082 17.7951L10.9695 19.5225L9.5 18.4549L8.03054 19.5225L8.59182 17.7951L7.12236 16.7275H8.93871L9.5 15Z" fill="white"/>
<path d="M18.5 15L19.0613 16.7275H20.8776L19.4082 17.7951L19.9695 19.5225L18.5 18.4549L17.0305 19.5225L17.5918 17.7951L16.1224 16.7275H17.9387L18.5 15Z" fill="white"/>
<path d="M0 40L52 0" stroke="#FCD95E" stroke-width="3"/>
</g>
</svg>
