<svg width="52" height="40" viewBox="0 0 52 40" fill="none" xmlns="http://www.w3.org/2000/svg">
<mask id="mask0_1_32477" style="mask-type:alpha" maskUnits="userSpaceOnUse" x="2" y="2" width="48" height="36">
<path d="M49.4307 28.8644C48.8332 33.5875 44.9585 36.9981 40.2139 37.3911C36.3588 37.7105 31.3804 38 26 38C20.6196 38 15.6412 37.7105 11.7861 37.3911C7.0415 36.9981 3.16681 33.5875 2.56934 28.8644C2.248 26.3241 2 23.296 2 20C2 16.704 2.248 13.6759 2.56934 11.1356C3.16682 6.41246 7.04151 3.00193 11.7861 2.60887C15.6412 2.28948 20.6196 2 26 2C31.3804 2 36.3588 2.28949 40.2139 2.60887C44.9585 3.00193 48.8332 6.41247 49.4307 11.1356C49.752 13.6759 50 16.704 50 20C50 23.296 49.752 26.3241 49.4307 28.8644Z" fill="#00D0BF"/>
</mask>
<g mask="url(#mask0_1_32477)">
<path d="M14 7L14.8981 9.76393L17.8042 9.76393L15.4531 11.4721L16.3511 14.2361L14 12.5279L11.6489 14.2361L12.5469 11.4721L10.1958 9.76393L13.1019 9.76393L14 7Z" fill="#2E50A6"/>
<path d="M38 25L38.8981 27.7639L41.8042 27.7639L39.4531 29.4721L40.3511 32.2361L38 30.5279L35.6489 32.2361L36.5469 29.4721L34.1958 27.7639L37.1019 27.7639L38 25Z" fill="#EE5757"/>
<rect x="50" y="38" width="24" height="36" transform="rotate(-180 50 38)" fill="#EE5757"/>
<rect x="26" y="38" width="24" height="18" transform="rotate(-180 26 38)" fill="#EE5757"/>
<rect x="26" y="20" width="24" height="18" transform="rotate(-180 26 20)" fill="white"/>
<rect x="11.8182" y="5" width="4.36364" height="12" fill="#EE5757"/>
<rect x="20" y="8.81812" width="4.36364" height="12" transform="rotate(90 20 8.81812)" fill="#EE5757"/>
</g>
</svg>
