<svg width="52" height="40" viewBox="0 0 52 40" fill="none" xmlns="http://www.w3.org/2000/svg">
<mask id="mask0_1_36022" style="mask-type:alpha" maskUnits="userSpaceOnUse" x="2" y="2" width="48" height="36">
<path d="M2.56934 11.1356C3.16681 6.41247 7.0415 3.00193 11.7861 2.60887C15.6412 2.28949 20.6196 2 26 2C31.3804 2 36.3588 2.28949 40.2139 2.60887C44.9585 3.00193 48.8332 6.41247 49.4307 11.1356C49.752 13.6759 50 16.704 50 20C50 23.296 49.752 26.3241 49.4307 28.8644C48.8332 33.5875 44.9585 36.9981 40.2139 37.3911C36.3588 37.7105 31.3804 38 26 38C20.6196 38 15.6412 37.7105 11.7861 37.3911C7.0415 36.9981 3.16681 33.5875 2.56934 28.8644C2.248 26.3241 2 23.296 2 20C2 16.704 2.248 13.6759 2.56934 11.1356Z" fill="#00D0BF"/>
</mask>
<g mask="url(#mask0_1_36022)">
<rect x="2" y="14" width="48" height="12" fill="#2E50A6"/>
<g clip-path="url(#clip0_1_36022)">
<path d="M62 2H2V20H62V2Z" fill="#EE5757"/>
<path d="M62 20H2V38H62V20Z" fill="#2E50A6"/>
<path d="M2 2L36.9145 20L2 38V2Z" fill="white"/>
<path d="M62 15H2V25H62V15Z" fill="white"/>
<path d="M2 4.55804L31.9527 20L2 35.4419V4.55804Z" fill="#1C6864"/>
<path d="M62 17H2V23H62V17Z" fill="#1C6864"/>
<path d="M2.49609 11.1318L16.4961 19.1318L18.0156 20L16.4961 20.8682L2.49609 28.8682L1 29.7236V10.2764L2.49609 11.1318Z" fill="#2C2929" stroke="#FCD95E" stroke-width="2"/>
</g>
</g>
<defs>
<clipPath id="clip0_1_36022">
<rect width="60" height="36" fill="white" transform="translate(2 2)"/>
</clipPath>
</defs>
</svg>
