<svg width="15" height="15" viewBox="0 0 15 15" fill="none" xmlns="http://www.w3.org/2000/svg">
<g clip-path="url(#clip0_819_73)">
<path d="M1 7.5C1 3.91015 3.91015 1 7.5 1H12C13.1046 1 14 1.89543 14 3V7.5C14 11.0899 11.0899 14 7.5 14V14C3.91015 14 1 11.0899 1 7.5V7.5Z" fill="url(#paint0_linear_819_73)"/>
<path d="M1 7.5C1 3.91015 3.91015 1 7.5 1H12C13.1046 1 14 1.89543 14 3V7.5C14 11.0899 11.0899 14 7.5 14V14C3.91015 14 1 11.0899 1 7.5V7.5Z" stroke="url(#paint1_linear_819_73)" stroke-width="0.785713"/>
<path d="M4.901 5.39463C4.901 5.31048 4.92252 5.22773 4.9635 5.15424C5.00447 5.08074 5.06356 5.01894 5.13514 4.9747C5.20672 4.93046 5.28843 4.90526 5.37249 4.90147C5.45656 4.89769 5.54019 4.91546 5.61546 4.95309L10.4796 7.38513C10.5616 7.42614 10.6306 7.48917 10.6787 7.56716C10.7269 7.64515 10.7525 7.73502 10.7525 7.82669C10.7525 7.91837 10.7269 8.00824 10.6787 8.08623C10.6306 8.16422 10.5616 8.22725 10.4796 8.26826L5.61546 10.7003C5.54019 10.7379 5.45655 10.7557 5.37248 10.7519C5.28841 10.7482 5.20671 10.7229 5.13513 10.6787C5.06355 10.6344 5.00447 10.5726 4.96349 10.4991C4.92252 10.4256 4.901 10.3429 4.901 10.2587V5.39463Z" fill="#FFFBFB"/>
<path fill-rule="evenodd" clip-rule="evenodd" d="M7.82666 4.66308C7.82666 4.76253 7.86617 4.85792 7.9365 4.92824C8.00682 4.99857 8.1022 5.03808 8.20166 5.03808C8.30112 5.03808 8.3965 4.99857 8.46683 4.92824C8.53715 4.85792 8.57666 4.76253 8.57666 4.66308V4.03808H9.32666V4.66308C9.32666 4.76253 9.36617 4.85792 9.4365 4.92824C9.50682 4.99857 9.6022 5.03808 9.70166 5.03808C9.80112 5.03808 9.8965 4.99857 9.96683 4.92824C10.0372 4.85792 10.0767 4.76253 10.0767 4.66308V3.16308C10.0767 2.86471 9.95813 2.57856 9.74716 2.36758C9.53618 2.1566 9.25003 2.03808 8.95166 2.03808C8.65329 2.03808 8.36714 2.1566 8.15617 2.36758C7.94519 2.57856 7.82666 2.86471 7.82666 3.16308V4.66308ZM9.32666 3.28808H8.57666V3.16308C8.57666 3.06362 8.61617 2.96824 8.6865 2.89791C8.75682 2.82759 8.8522 2.78808 8.95166 2.78808C9.05112 2.78808 9.1465 2.82759 9.21683 2.89791C9.28715 2.96824 9.32666 3.06362 9.32666 3.16308V3.28808ZM10.5767 4.66308C10.5767 4.87008 10.7447 5.03808 10.9517 5.03808H11.7017C12 5.03808 12.2862 4.91955 12.4972 4.70857C12.7081 4.49759 12.8267 4.21144 12.8267 3.91308V3.16308C12.8267 2.86471 12.7081 2.57856 12.4972 2.36758C12.2862 2.1566 12 2.03808 11.7017 2.03808H10.9517C10.8522 2.03808 10.7568 2.07759 10.6865 2.14791C10.6162 2.21824 10.5767 2.31362 10.5767 2.41308V4.66308ZM11.3267 4.28808V2.78808H11.7017C11.8011 2.78808 11.8965 2.82759 11.9668 2.89791C12.0372 2.96824 12.0767 3.06362 12.0767 3.16308V3.91308C12.0767 4.01253 12.0372 4.10791 11.9668 4.17824C11.8965 4.24857 11.8011 4.28808 11.7017 4.28808H11.3267Z" fill="white"/>
</g>
<defs>
<linearGradient id="paint0_linear_819_73" x1="-0.130353" y1="16.825" x2="25.503" y2="-10.8022" gradientUnits="userSpaceOnUse">
<stop stop-color="#FFD7BF"/>
<stop offset="0.439058" stop-color="#FF6A00"/>
<stop offset="1" stop-color="#B24400"/>
</linearGradient>
<linearGradient id="paint1_linear_819_73" x1="15.8056" y1="1.66301" x2="5.03776" y2="8.76577" gradientUnits="userSpaceOnUse">
<stop stop-color="#793200"/>
<stop offset="1" stop-color="#FF8A4D"/>
</linearGradient>
<clipPath id="clip0_819_73">
<rect width="15" height="15" fill="white"/>
</clipPath>
</defs>
</svg>
