<svg width="15" height="15" viewBox="0 0 15 15" fill="none" xmlns="http://www.w3.org/2000/svg">
<g clip-path="url(#clip0_766_68)">
<rect x="1" y="1" width="13.33" height="13.33" rx="4" fill="url(#paint0_linear_766_68)"/>
<rect x="1" y="1" width="13.33" height="13.33" rx="4" stroke="url(#paint1_linear_766_68)" stroke-width="0.785713"/>
<path fill-rule="evenodd" clip-rule="evenodd" d="M3 9.8125C3 9.99484 3.07243 10.1697 3.20136 10.2986C3.3303 10.4276 3.50516 10.5 3.6875 10.5C3.86984 10.5 4.0447 10.4276 4.17364 10.2986C4.30257 10.1697 4.375 9.99484 4.375 9.8125V8.66667H5.75V9.8125C5.75 9.99484 5.82243 10.1697 5.95136 10.2986C6.0803 10.4276 6.25516 10.5 6.4375 10.5C6.61984 10.5 6.7947 10.4276 6.92364 10.2986C7.05257 10.1697 7.125 9.99484 7.125 9.8125V7.0625C7.125 6.51549 6.9077 5.99089 6.52091 5.60409C6.13411 5.2173 5.60951 5 5.0625 5C4.51549 5 3.99089 5.2173 3.60409 5.60409C3.2173 5.99089 3 6.51549 3 7.0625V9.8125ZM5.75 7.29167H4.375V7.0625C4.375 6.88016 4.44743 6.7053 4.57636 6.57636C4.7053 6.44743 4.88016 6.375 5.0625 6.375C5.24484 6.375 5.4197 6.44743 5.54864 6.57636C5.67757 6.7053 5.75 6.88016 5.75 7.0625V7.29167ZM8.04167 9.8125C8.04167 10.192 8.34967 10.5 8.72917 10.5H10.1042C10.6512 10.5 11.1758 10.2827 11.5626 9.89591C11.9494 9.50911 12.1667 8.98451 12.1667 8.4375V7.0625C12.1667 6.51549 11.9494 5.99089 11.5626 5.60409C11.1758 5.2173 10.6512 5 10.1042 5H8.72917C8.54683 5 8.37196 5.07243 8.24303 5.20136C8.1141 5.3303 8.04167 5.50516 8.04167 5.6875V9.8125ZM9.41667 9.125V6.375H10.1042C10.2865 6.375 10.4614 6.44743 10.5903 6.57636C10.7192 6.7053 10.7917 6.88016 10.7917 7.0625V8.4375C10.7917 8.61984 10.7192 8.7947 10.5903 8.92364C10.4614 9.05257 10.2865 9.125 10.1042 9.125H9.41667Z" fill="white"/>
</g>
<defs>
<linearGradient id="paint0_linear_766_68" x1="-0.159047" y1="17.2267" x2="26.125" y2="-11.1018" gradientUnits="userSpaceOnUse">
<stop stop-color="#FFD7BF"/>
<stop offset="0.439058" stop-color="#FF6A00"/>
<stop offset="1" stop-color="#B24400"/>
</linearGradient>
<linearGradient id="paint1_linear_766_68" x1="16.1814" y1="1.67984" x2="5.14026" y2="8.9629" gradientUnits="userSpaceOnUse">
<stop stop-color="#793200"/>
<stop offset="1" stop-color="#FF8A4D"/>
</linearGradient>
<clipPath id="clip0_766_68">
<rect width="15" height="15" fill="white"/>
</clipPath>
</defs>
</svg>
