<svg width="15" height="15" viewBox="0 0 15 15" fill="none" xmlns="http://www.w3.org/2000/svg">
<g clip-path="url(#clip0_911_127)">
<mask id="mask0_911_127" style="mask-type:luminance" maskUnits="userSpaceOnUse" x="0" y="0" width="15" height="15">
<path d="M15 0H0V15H15V0Z" fill="white"/>
</mask>
<g mask="url(#mask0_911_127)">
<path d="M9.94743 2H5.38255C4.7746 2 4.47061 2 4.19565 2.08635C3.95225 2.16278 3.72643 2.28802 3.53152 2.45465C3.31131 2.6429 3.14693 2.90263 2.81817 3.4221L1.36706 5.71496C1.14985 6.05816 1.04124 6.22977 1.01176 6.41037C0.985764 6.56965 1.00305 6.73312 1.06177 6.88315C1.12835 7.05327 1.27036 7.19753 1.55439 7.48603L6.94645 12.9631C7.19796 13.2185 7.32372 13.3463 7.46873 13.3941C7.59629 13.4362 7.73371 13.4362 7.86125 13.3941C8.00628 13.3463 8.13203 13.2185 8.38355 12.9631L13.7756 7.48603C14.0596 7.19753 14.2017 7.05327 14.2682 6.88315C14.3269 6.73312 14.3442 6.56965 14.3182 6.41037C14.2888 6.22977 14.1801 6.05816 13.9629 5.71496L12.5118 3.42209C12.1831 2.90263 12.0187 2.6429 11.7985 2.45465C11.6036 2.28802 11.3777 2.16278 11.1344 2.08635C10.8594 2 10.5554 2 9.94743 2Z" fill="url(#paint0_linear_911_127)" stroke="url(#paint1_linear_911_127)"/>
<path d="M9.94743 2H5.38255C4.7746 2 4.47061 2 4.19565 2.08635C3.95225 2.16278 3.72643 2.28802 3.53152 2.45465C3.31131 2.6429 3.14693 2.90263 2.81817 3.4221L1.36706 5.71496C1.14985 6.05816 1.04124 6.22977 1.01176 6.41037C0.985764 6.56965 1.00305 6.73312 1.06177 6.88315C1.12835 7.05327 1.27036 7.19753 1.55439 7.48603L6.94645 12.9631C7.19796 13.2185 7.32372 13.3463 7.46873 13.3941C7.59629 13.4362 7.73371 13.4362 7.86125 13.3941C8.00628 13.3463 8.13203 13.2185 8.38355 12.9631L13.7756 7.48603C14.0596 7.19753 14.2017 7.05327 14.2682 6.88315C14.3269 6.73312 14.3442 6.56965 14.3182 6.41037C14.2888 6.22977 14.1801 6.05816 13.9629 5.71496L12.5118 3.42209C12.1831 2.90263 12.0187 2.6429 11.7985 2.45465C11.6036 2.28802 11.3777 2.16278 11.1344 2.08635C10.8594 2 10.5554 2 9.94743 2Z" fill="url(#paint2_radial_911_127)"/>
<path opacity="0.95" d="M8.8829 4.05074C8.95516 3.85547 9.23135 3.85547 9.3036 4.05074L9.8029 5.40008C9.83288 5.48112 9.89678 5.545 9.97782 5.575L11.3272 6.07431C11.5224 6.14655 11.5224 6.42274 11.3272 6.495L9.97782 6.9943C9.89678 7.02428 9.83288 7.08817 9.8029 7.16921L9.3036 8.51855C9.23135 8.71382 8.95516 8.71382 8.8829 8.51855L8.3836 7.16921C8.35362 7.08817 8.28973 7.02428 8.20869 6.9943L6.85934 6.495C6.66407 6.42274 6.66407 6.14655 6.85934 6.07431L8.20869 5.575C8.28973 5.545 8.35362 5.48112 8.3836 5.40008L8.8829 4.05074Z" fill="white"/>
</g>
</g>
<defs>
<linearGradient id="paint0_linear_911_127" x1="-0.159046" y1="17.2267" x2="26.125" y2="-11.1018" gradientUnits="userSpaceOnUse">
<stop stop-color="#C5E9FF"/>
<stop offset="0.22" stop-color="#6BC0FF"/>
<stop offset="0.6" stop-color="#30A1F5"/>
<stop offset="1" stop-color="#0045AA"/>
</linearGradient>
<linearGradient id="paint1_linear_911_127" x1="16.1814" y1="1.67984" x2="5.14026" y2="8.9629" gradientUnits="userSpaceOnUse">
<stop stop-color="#001847"/>
<stop offset="1" stop-color="#1A8FEF"/>
</linearGradient>
<radialGradient id="paint2_radial_911_127" cx="0" cy="0" r="1" gradientUnits="userSpaceOnUse" gradientTransform="translate(3.5 3) scale(6)">
<stop stop-color="white" stop-opacity="0.28"/>
<stop offset="1" stop-color="white" stop-opacity="0"/>
</radialGradient>
<clipPath id="clip0_911_127">
<rect width="15" height="15" fill="white"/>
</clipPath>
</defs>
</svg>
