<svg width="15" height="15" viewBox="0 0 15 15" fill="none" xmlns="http://www.w3.org/2000/svg">
<g clip-path="url(#clip0_686_74)">
<path d="M6.95946 1.40214C7.27691 0.865954 8.05324 0.865954 8.37069 1.40214L10.0144 4.1786C10.1295 4.37293 10.3197 4.5111 10.5401 4.56058L13.6887 5.26619C14.2967 5.40241 14.5366 6.13999 14.1249 6.6076L11.9925 9.02921C11.843 9.19882 11.7701 9.42273 11.7912 9.64774L12.0935 12.8604C12.1517 13.4807 11.5236 13.9364 10.9517 13.6892L7.99036 12.4094C7.78284 12.3198 7.54731 12.3198 7.33979 12.4094L4.37767 13.6892C3.80578 13.9363 3.17849 13.4806 3.23669 12.8604L3.53898 9.64774C3.56012 9.42273 3.48711 9.19882 3.33772 9.02921L1.20527 6.6076C0.793569 6.1401 1.0329 5.40264 1.64063 5.26619L4.78921 4.56058C5.00976 4.51116 5.20056 4.37306 5.31576 4.1786L6.95946 1.40214ZM7.66507 5.51674C6.33331 5.51674 5.25352 6.59595 5.25333 7.92766C5.25333 9.25955 6.33319 10.3394 7.66507 10.3394C8.99695 10.3394 10.0768 9.25955 10.0768 7.92766C10.0766 6.59594 8.99684 5.51674 7.66507 5.51674Z" fill="url(#paint0_linear_686_74)" stroke="url(#paint1_linear_686_74)" stroke-width="0.785713"/>
</g>
<defs>
<linearGradient id="paint0_linear_686_74" x1="-0.159047" y1="16.53" x2="24.8902" y2="-11.6787" gradientUnits="userSpaceOnUse">
<stop stop-color="#FDEB32"/>
<stop offset="0.439058" stop-color="#FEBD04"/>
<stop offset="1" stop-color="#D75902"/>
</linearGradient>
<linearGradient id="paint1_linear_686_74" x1="16.1814" y1="1.65065" x2="5.43903" y2="9.05451" gradientUnits="userSpaceOnUse">
<stop stop-color="#DB5A00"/>
<stop offset="1" stop-color="#FF9145"/>
</linearGradient>
<clipPath id="clip0_686_74">
<rect width="15" height="15" fill="white"/>
</clipPath>
</defs>
</svg>
