<svg width="15" height="15" viewBox="0 0 15 15" fill="none" xmlns="http://www.w3.org/2000/svg">
<g clip-path="url(#clip0_664_74)">
<path fill-rule="evenodd" clip-rule="evenodd" d="M7.14428 12.1271L4.14373 14.0489C3.83174 14.2487 3.42386 14.1463 3.23273 13.82C3.13937 13.6608 3.11154 13.4688 3.15555 13.2877L3.62004 11.3763C3.7877 10.6862 4.23932 10.1095 4.85316 9.8014L8.12658 8.15819C8.27925 8.08159 8.34355 7.89016 8.27028 7.73061C8.21094 7.60135 8.07676 7.52905 7.94167 7.55351L4.29789 8.21307C3.55719 8.34715 2.79761 8.13329 2.22147 7.62847L1.07037 6.6199C0.789922 6.37424 0.753108 5.93734 0.988119 5.64416C1.10242 5.50155 1.26679 5.41302 1.44421 5.39851L4.96115 5.11075C5.20961 5.09042 5.42614 4.92602 5.52153 4.6853L6.87828 1.26108C7.01834 0.907661 7.40591 0.739842 7.74392 0.886253C7.90621 0.95656 8.03518 1.09138 8.1024 1.26108L9.45915 4.6853C9.55455 4.92602 9.77111 5.09042 10.0195 5.11075L13.5558 5.40009C13.9207 5.42993 14.1932 5.76328 14.1647 6.14467C14.151 6.32811 14.0679 6.4983 13.934 6.61775L11.237 9.02164C11.0471 9.19078 10.9644 9.4572 11.0227 9.71081L11.8519 13.3119C11.9375 13.6838 11.7185 14.0579 11.3628 14.1474C11.1918 14.1905 11.0116 14.1607 10.8617 14.0647L7.83646 12.1271C7.62404 11.9911 7.35664 11.9911 7.14428 12.1271Z" fill="url(#paint0_linear_664_74)" stroke="url(#paint1_linear_664_74)" stroke-width="0.785713"/>
</g>
<defs>
<linearGradient id="paint0_linear_664_74" x1="-0.325963" y1="17.0641" x2="25.9647" y2="-11.2715" gradientUnits="userSpaceOnUse">
<stop stop-color="#FDEB32"/>
<stop offset="0.439058" stop-color="#FEBD04"/>
<stop offset="1" stop-color="#D75902"/>
</linearGradient>
<linearGradient id="paint1_linear_664_74" x1="16.0186" y1="1.51334" x2="4.97467" y2="8.79822" gradientUnits="userSpaceOnUse">
<stop stop-color="#DB5A00"/>
<stop offset="1" stop-color="#FF9145"/>
</linearGradient>
<clipPath id="clip0_664_74">
<rect width="15" height="15" fill="white"/>
</clipPath>
</defs>
</svg>
