<svg width="15" height="15" viewBox="0 0 15 15" fill="none" xmlns="http://www.w3.org/2000/svg">
<g clip-path="url(#clip0_698_174)">
<path d="M8.50185 1.04409C8.65612 0.889845 8.89919 0.882449 9.04461 1.02751C9.28256 1.26546 9.70582 1.24464 9.96855 0.981939C10.1229 0.82756 10.3666 0.820656 10.512 0.966057L11.4953 1.94938C11.6406 2.0948 11.6331 2.33781 11.4787 2.49214C11.216 2.75486 11.1952 3.17813 11.4332 3.41607C11.6711 3.65402 12.0944 3.6332 12.3571 3.3705C12.5114 3.21617 12.7544 3.20866 12.8999 3.35392L13.8832 4.33724C14.0286 4.48266 14.0217 4.72632 13.8673 4.88069C13.6046 5.14342 13.5838 5.56673 13.8217 5.80463C13.9668 5.95007 13.9594 6.19312 13.8052 6.34739L6.34739 13.8052C6.19312 13.9594 5.95008 13.9668 5.80463 13.8217C5.56672 13.5838 5.1434 13.6046 4.88069 13.8673C4.72632 14.0217 4.48266 14.0286 4.33724 13.8832L3.35392 12.8999C3.20866 12.7544 3.21618 12.5114 3.3705 12.3571C3.6332 12.0944 3.65403 11.6711 3.41607 11.4332C3.17812 11.1952 2.75484 11.216 2.49214 11.4787C2.33782 11.6331 2.0948 11.6406 1.94938 11.4953L0.966057 10.512C0.820656 10.3666 0.827565 10.1229 0.981939 9.96855C1.24464 9.70584 1.26546 9.28256 1.02751 9.04461C0.88244 8.89918 0.88982 8.65612 1.04409 8.50185L8.50185 1.04409Z" fill="url(#paint0_linear_698_174)"/>
<mask id="mask0_698_174" style="mask-type:luminance" maskUnits="userSpaceOnUse" x="3" y="3" width="8" height="8">
<path d="M8.24663 3.95096L3.95093 8.24666L6.60258 10.8983L10.8983 6.60261L8.24663 3.95096Z" fill="white"/>
</mask>
<g mask="url(#mask0_698_174)">
<path d="M5.20886 9.04591C5.18124 9.07353 5.15546 9.07537 5.13152 9.05143L5.06192 8.98183C5.03798 8.95789 5.03982 8.93211 5.06744 8.90449L5.63534 8.33659C5.66296 8.30897 5.68874 8.30713 5.71268 8.33107L5.78228 8.40067C5.80622 8.42461 5.80438 8.45039 5.77676 8.47801L5.57346 8.68131L6.19384 9.30168C6.2141 9.32194 6.21502 9.34127 6.1966 9.35969L6.09054 9.46575C6.07212 9.48417 6.05279 9.48325 6.03253 9.46299L5.41216 8.84262L5.20886 9.04591ZM6.61479 8.9415C6.58901 8.96728 6.56231 8.96636 6.53469 8.93874L5.82537 8.22942C5.79775 8.2018 5.79683 8.1751 5.82261 8.14932L5.90658 8.06535C5.93236 8.03957 5.95906 8.04049 5.98668 8.06811L6.696 8.77743C6.72362 8.80505 6.72454 8.83175 6.69876 8.85753L6.61479 8.9415ZM6.47723 8.28687C6.35018 8.15982 6.28149 8.02668 6.27118 7.88747C6.26087 7.74826 6.31648 7.61788 6.43801 7.49635C6.50799 7.42638 6.57814 7.37795 6.64849 7.35106C6.71883 7.32418 6.78457 7.32142 6.8457 7.34278C6.88621 7.35677 6.90242 7.37739 6.89432 7.40465L6.86338 7.50629C6.8527 7.54202 6.82655 7.55417 6.78494 7.54275C6.75842 7.53539 6.72527 7.53797 6.6855 7.55049C6.64609 7.56264 6.6089 7.58621 6.57391 7.6212C6.49657 7.69854 6.46692 7.77717 6.48497 7.85709C6.50265 7.93664 6.55752 8.02245 6.64959 8.11452C6.74166 8.20659 6.82766 8.26165 6.90758 8.27969C6.98713 8.29737 7.06557 8.26754 7.14291 8.1902C7.18453 8.14858 7.21012 8.1042 7.2197 8.05706C7.22964 8.00956 7.23167 7.97181 7.22577 7.94382C7.2162 7.89815 7.22835 7.872 7.26223 7.86537L7.37272 7.84328C7.40292 7.83738 7.42317 7.85396 7.43349 7.89299C7.44895 7.95118 7.4438 8.01932 7.41802 8.09739C7.39224 8.17547 7.34215 8.2517 7.26776 8.3261C7.14807 8.44579 7.01806 8.50103 6.87774 8.49182C6.7378 8.48225 6.60429 8.41393 6.47723 8.28687ZM7.73622 7.82007C7.71044 7.84585 7.68374 7.84493 7.65611 7.81731L6.9468 7.10799C6.91918 7.08037 6.91826 7.05367 6.94404 7.02789L7.028 6.94392C7.05378 6.91814 7.08049 6.91906 7.10811 6.94669L7.32797 7.16655C7.35007 7.18865 7.37125 7.21167 7.3915 7.23561L7.39537 7.23174L7.36885 6.66826C7.36701 6.62665 7.37309 6.59884 7.38708 6.58485L7.49812 6.47381C7.54121 6.43072 7.56404 6.43956 7.56662 6.50032L7.59038 7.02679L8.28146 7.17981C8.33339 7.19123 8.34223 7.21406 8.30798 7.24831L8.20467 7.35161C8.18552 7.37077 8.15809 7.37647 8.12236 7.36874L7.60032 7.25328L7.61192 7.4505L7.81742 7.656C7.84504 7.68362 7.84597 7.71032 7.82019 7.7361L7.73622 7.82007ZM8.48862 7.06767C8.46284 7.09345 8.43614 7.09253 8.40852 7.06491L7.6992 6.35559C7.67158 6.32797 7.67066 6.30127 7.69644 6.27549L8.17042 5.8015C8.19805 5.77388 8.22383 5.77204 8.24776 5.79598L8.31295 5.86117C8.33689 5.8851 8.33505 5.91088 8.30743 5.93851L7.95608 6.28985L8.13175 6.46552L8.45382 6.14346C8.48144 6.11584 8.50722 6.11399 8.53116 6.13793L8.59635 6.20312C8.62028 6.22706 8.61844 6.25284 8.59082 6.28046L8.26876 6.60252L8.47426 6.80803L8.84328 6.43901C8.8709 6.41138 8.89668 6.40954 8.92062 6.43348L8.98581 6.49867C9.00974 6.52261 9.0079 6.54839 8.98028 6.57601L8.48862 7.06767ZM8.47813 5.77664C8.4505 5.80427 8.42472 5.80611 8.40079 5.78217L8.33118 5.71256C8.30724 5.68862 8.30908 5.66284 8.3367 5.63522L8.9046 5.06733C8.93222 5.03971 8.958 5.03787 8.98194 5.0618L9.05155 5.13141C9.07548 5.15535 9.07364 5.18113 9.04602 5.20875L8.84273 5.41204L9.4631 6.03242C9.48336 6.05267 9.48428 6.07201 9.46587 6.09042L9.3598 6.19649C9.34139 6.2149 9.32205 6.21398 9.30179 6.19373L8.68142 5.57335L8.47813 5.77664Z" fill="#6C393D"/>
</g>
<path d="M7.96207 2.99815L2.99817 7.96205C2.49732 8.4629 2.46725 9.24486 2.931 9.7086L5.14072 11.9183C5.60444 12.382 6.38641 12.352 6.88726 11.8511L11.8512 6.88724C12.352 6.38639 12.3821 5.60442 11.9183 5.1407L9.70862 2.93098C9.24488 2.46723 8.46291 2.49731 7.96207 2.99815Z" stroke="#B63448" stroke-width="0.4"/>
<path d="M2.99805 7.96204C2.97365 7.93764 2.91112 7.96059 2.8584 8.01331C2.80568 8.06603 2.78273 8.12855 2.80713 8.15296L6.69624 12.0421C6.72063 12.0665 6.78315 12.0435 6.83587 11.9908C6.88859 11.9381 6.91155 11.8755 6.88716 11.8511L2.99805 7.96204Z" fill="#B63448"/>
<path d="M8.15308 2.80712C8.12867 2.78271 8.06614 2.80567 8.01343 2.85839C7.96066 2.91115 7.93776 2.97363 7.96216 2.99804L11.8513 6.88714C11.8757 6.91154 11.9381 6.88863 11.9909 6.83586C12.0436 6.78315 12.0666 6.72062 12.0422 6.69623L8.15308 2.80712Z" fill="#B63448"/>
</g>
<defs>
<linearGradient id="paint0_linear_698_174" x1="4.77297" y1="4.77297" x2="10.0763" y2="10.0763" gradientUnits="userSpaceOnUse">
<stop stop-color="#DF919A"/>
<stop offset="1" stop-color="#EF6470"/>
</linearGradient>
<clipPath id="clip0_698_174">
<rect width="15" height="15" fill="white"/>
</clipPath>
</defs>
</svg>
