<svg width="15" height="15" viewBox="0 0 15 15" fill="none" xmlns="http://www.w3.org/2000/svg">
<g clip-path="url(#clip0_689_79)">
<rect x="1" y="1" width="13.33" height="13.33" rx="6.665" fill="url(#paint0_linear_689_79)"/>
<rect x="1" y="1" width="13.33" height="13.33" rx="6.665" stroke="url(#paint1_linear_689_79)" stroke-width="0.785713"/>
<path fill-rule="evenodd" clip-rule="evenodd" d="M5.11702 5.00003L9.92022 5C10.0902 5 10.26 5.02496 10.4374 5.10769C10.6501 5.20685 10.7629 5.36314 10.842 5.47872C10.8481 5.48771 10.8539 5.49698 10.8592 5.50646C10.9521 5.67186 11 5.85045 11 6.04255C11 6.22508 10.9566 6.42395 10.8592 6.59727C10.8583 6.59896 10.8573 6.60058 10.8564 6.60223L7.82178 11.815C7.75486 11.93 7.6317 12.0005 7.49868 12C7.36567 11.9995 7.24299 11.9281 7.1769 11.8127L4.19803 6.61107C4.19717 6.60966 4.19632 6.60825 4.19546 6.60682C4.12729 6.49448 4.02186 6.32075 4.00342 6.09657C3.98647 5.89039 4.03281 5.68382 4.1364 5.50471C4.23999 5.32558 4.39595 5.18238 4.58352 5.09472C4.78465 5.00073 4.98847 5.00003 5.11702 5.00003ZM7.12765 5.74468H5.11702C4.98492 5.74468 4.93421 5.75282 4.89876 5.7694C4.84974 5.79227 4.80857 5.82993 4.78104 5.87752C4.75352 5.92514 4.74107 5.98031 4.74559 6.03555C4.74819 6.0672 4.7611 6.10342 4.83723 6.22897C4.83882 6.2316 4.84038 6.23426 4.84191 6.23692L7.12765 10.2282V5.74468ZM7.87234 5.74468V10.248L10.211 6.23059C10.2374 6.18263 10.2553 6.11333 10.2553 6.04255C10.2553 5.98514 10.2434 5.93529 10.2168 5.88391C10.1889 5.84375 10.1719 5.82249 10.1577 5.80793C10.1455 5.79549 10.1361 5.78882 10.1228 5.78264C10.0675 5.75686 10.0109 5.74468 9.92022 5.74468H7.87234Z" fill="#FAFAFA"/>
</g>
<defs>
<linearGradient id="paint0_linear_689_79" x1="-0.159047" y1="17.2267" x2="26.125" y2="-11.1018" gradientUnits="userSpaceOnUse">
<stop stop-color="#33C5EE"/>
<stop offset="0.439058" stop-color="#0088CC"/>
<stop offset="1" stop-color="#005B99"/>
</linearGradient>
<linearGradient id="paint1_linear_689_79" x1="16.1814" y1="1.67984" x2="5.14026" y2="8.9629" gradientUnits="userSpaceOnUse">
<stop stop-color="#002A44"/>
<stop offset="1" stop-color="#0077AA"/>
</linearGradient>
<clipPath id="clip0_689_79">
<rect width="15" height="15" fill="white"/>
</clipPath>
</defs>
</svg>
