<svg width="15" height="15" viewBox="0 0 15 15" fill="none" xmlns="http://www.w3.org/2000/svg">
<g clip-path="url(#clip0_699_221)">
<rect x="1" y="1" width="13.33" height="13.33" rx="4" fill="url(#paint0_linear_699_221)"/>
<rect x="1" y="1" width="13.33" height="13.33" rx="4" stroke="url(#paint1_linear_699_221)" stroke-width="0.785713"/>
<path d="M3.4375 10C3.28939 10 3.21533 9.92065 3.21533 9.76196V5.68677C3.21533 5.52808 3.28939 5.44873 3.4375 5.44873H4.35791C4.48063 5.44873 4.56844 5.53337 4.62134 5.70264L5.48145 8.48608C5.51953 8.60669 5.54598 8.70614 5.56079 8.78442C5.5756 8.8606 5.5883 8.95158 5.59888 9.05737H5.61792C5.6285 8.95158 5.64119 8.8606 5.65601 8.78442C5.67082 8.70614 5.69727 8.60669 5.73535 8.48608L6.59546 5.70264C6.64836 5.53337 6.73617 5.44873 6.85889 5.44873H7.7793C7.92741 5.44873 8.00146 5.52808 8.00146 5.68677V9.76196C8.00146 9.92065 7.92741 10 7.7793 10H7.29688C7.14876 10 7.07471 9.92065 7.07471 9.76196V7.14038C7.07471 7.01343 7.08 6.88647 7.09058 6.75952H7.06836L6.15112 9.74292C6.09823 9.91431 6.00724 10 5.87817 10H5.33862C5.20955 10 5.11857 9.91431 5.06567 9.74292L4.14844 6.75952H4.12622C4.1368 6.88647 4.14209 7.01343 4.14209 7.14038V9.76196C4.14209 9.92065 4.06803 10 3.91992 10H3.4375ZM9.13135 10C9.00439 10 8.94092 9.93652 8.94092 9.80957V5.50586C8.94092 5.37891 9.00439 5.31543 9.13135 5.31543H9.63916C9.76611 5.31543 9.82959 5.37891 9.82959 5.50586V6.78809C9.82959 6.87272 9.82536 6.95736 9.81689 7.04199H9.82959C9.93962 6.86003 10.0623 6.74154 10.1978 6.68652C10.3332 6.63151 10.4961 6.604 10.6865 6.604C11.1838 6.604 11.5329 6.77645 11.7339 7.12134C11.937 7.46411 12.0386 7.86825 12.0386 8.33374C12.0386 8.79924 11.937 9.20443 11.7339 9.54932C11.5329 9.89209 11.1838 10.0635 10.6865 10.0635C10.4961 10.0635 10.3332 10.036 10.1978 9.98096C10.0623 9.92594 9.93962 9.80745 9.82959 9.62549H9.81689L9.8042 9.80957C9.79574 9.93652 9.73861 10 9.63281 10H9.13135ZM9.82959 8.47656C9.82959 8.76221 9.88566 8.99495 9.9978 9.1748C10.1121 9.35254 10.2485 9.44141 10.4072 9.44141C10.6929 9.44141 10.8791 9.34196 10.9658 9.14307C11.0547 8.94206 11.0991 8.67228 11.0991 8.33374C11.0991 7.9952 11.0547 7.72648 10.9658 7.52759C10.8791 7.32658 10.6929 7.22607 10.4072 7.22607C10.2485 7.22607 10.1121 7.316 9.9978 7.49585C9.88566 7.67358 9.82959 7.90527 9.82959 8.19092V8.47656Z" fill="white"/>
</g>
<defs>
<linearGradient id="paint0_linear_699_221" x1="-0.159047" y1="17.2267" x2="26.125" y2="-11.1018" gradientUnits="userSpaceOnUse">
<stop stop-color="#2EC6A2"/>
<stop offset="0.439058" stop-color="#00BBD4"/>
<stop offset="1" stop-color="#0064C8"/>
</linearGradient>
<linearGradient id="paint1_linear_699_221" x1="16.1814" y1="1.67984" x2="5.14026" y2="8.9629" gradientUnits="userSpaceOnUse">
<stop stop-color="#002E57"/>
<stop offset="1" stop-color="#0097A7"/>
</linearGradient>
<clipPath id="clip0_699_221">
<rect width="15" height="15" fill="white"/>
</clipPath>
</defs>
</svg>
