<svg width="15" height="15" viewBox="0 0 15 15" fill="none" xmlns="http://www.w3.org/2000/svg">
<mask id="mask0_911_135" style="mask-type:luminance" maskUnits="userSpaceOnUse" x="0" y="1" width="15" height="13">
<path d="M15 1H0V14H15V1Z" fill="white"/>
</mask>
<g mask="url(#mask0_911_135)">
<path fill-rule="evenodd" clip-rule="evenodd" d="M3.4406 2.05486L1.00999 6.97308C1.00074 6.99137 0.997813 7.01203 1.00163 7.03205C1.00544 7.05206 1.01581 7.07037 1.0312 7.0843L7.59568 13.1439C7.61433 13.1611 7.63916 13.1708 7.665 13.1708C7.69083 13.1708 7.71567 13.1611 7.73432 13.1439L14.2988 7.08468C14.3142 7.07075 14.3246 7.05244 14.3284 7.03242C14.3322 7.01241 14.3293 6.99175 14.32 6.97345L11.8894 2.05524C11.8816 2.03873 11.8689 2.02473 11.8531 2.01494C11.8372 2.00514 11.8187 1.99996 11.7999 2.00001H3.53093C3.51198 1.99978 3.49337 2.00484 3.47734 2.01457C3.46132 2.02431 3.44856 2.0383 3.4406 2.05486Z" fill="url(#paint0_linear_911_135)" stroke="url(#paint1_linear_911_135)"/>
<path fill-rule="evenodd" clip-rule="evenodd" d="M3.4406 2.05486L1.00999 6.97308C1.00074 6.99137 0.997813 7.01203 1.00163 7.03205C1.00544 7.05206 1.01581 7.07037 1.0312 7.0843L7.59568 13.1439C7.61433 13.1611 7.63916 13.1708 7.665 13.1708C7.69083 13.1708 7.71567 13.1611 7.73432 13.1439L14.2988 7.08468C14.3142 7.07075 14.3246 7.05244 14.3284 7.03242C14.3322 7.01241 14.3293 6.99175 14.32 6.97345L11.8894 2.05524C11.8816 2.03873 11.8689 2.02473 11.8531 2.01494C11.8372 2.00514 11.8187 1.99996 11.7999 2.00001H3.53093C3.51198 1.99978 3.49337 2.00484 3.47734 2.01457C3.46132 2.02431 3.44856 2.0383 3.4406 2.05486Z" fill="url(#paint2_radial_911_135)"/>
<path fill-rule="evenodd" clip-rule="evenodd" d="M8.40469 7.45452C8.36309 7.45749 8.1482 7.46972 7.66884 7.46972C7.28757 7.46972 7.01687 7.45881 6.9219 7.45452C5.44847 7.39274 4.34869 7.14828 4.34869 6.85559C4.34869 6.56289 5.44847 6.31876 6.9219 6.25599V7.21105C7.01826 7.21765 7.29416 7.23318 7.67542 7.23318C8.13295 7.23318 8.36205 7.21501 8.4033 7.21138V6.25665C9.87361 6.31909 10.971 6.56355 10.971 6.85559C10.971 7.14762 9.87395 7.39208 8.4033 7.45419L8.40469 7.45452ZM8.40469 6.15788V5.30325H10.4566V4H4.86998V5.30325H6.92155V6.15755C5.25403 6.23055 4 6.54538 4 6.92265C4 7.29991 5.25403 7.61441 6.92155 7.68775V10.4264H8.40434V7.68676C10.0681 7.61375 11.32 7.29925 11.32 6.92232C11.32 6.54538 10.0694 6.23122 8.40469 6.15788Z" fill="white"/>
</g>
<defs>
<linearGradient id="paint0_linear_911_135" x1="-0.159047" y1="15.5982" x2="21.248" y2="-11.9336" gradientUnits="userSpaceOnUse">
<stop stop-color="#C0F0DC"/>
<stop offset="0.25" stop-color="#6FD4B5"/>
<stop offset="0.62" stop-color="#50AF95"/>
<stop offset="1" stop-color="#155840"/>
</linearGradient>
<linearGradient id="paint1_linear_911_135" x1="16.1814" y1="2.56972" x2="6.39781" y2="10.2707" gradientUnits="userSpaceOnUse">
<stop stop-color="#082E20"/>
<stop offset="1" stop-color="#2E8F71"/>
</linearGradient>
<radialGradient id="paint2_radial_911_135" cx="0" cy="0" r="1" gradientUnits="userSpaceOnUse" gradientTransform="translate(4 4.5) scale(6)">
<stop stop-color="white" stop-opacity="0.26"/>
<stop offset="1" stop-color="white" stop-opacity="0"/>
</radialGradient>
</defs>
</svg>
